<svg width="1920" height="199" viewBox="0 0 1920 199" fill="none" xmlns="http://www.w3.org/2000/svg">
<rect width="1920" height="199" fill="white"/>
<path d="M292.072 86V81.068H282.316V75.704H290.308L289.516 70.628H282.316V66.092H291.748V61.16H276.268V86H292.072ZM289.804 54.968L283.216 53.888L281.056 59.324H284.512L289.804 54.968ZM300.718 86V60.008L295.246 60.872V86H300.718ZM319.824 77.144C319.824 72.032 317.412 68 312.012 68C307.224 68 303.696 71.492 303.696 77.252C303.696 83.552 307.476 86.36 312.768 86.36C315.54 86.36 317.88 85.604 319.788 84.38L319.248 80.564C317.304 81.68 315.396 82.4 313.452 82.4C311.076 82.4 309.42 81.32 309.132 78.548H319.716C319.788 78.26 319.824 77.684 319.824 77.144ZM314.64 75.56H309.096C309.276 72.86 310.356 71.528 311.868 71.528C313.524 71.528 314.46 72.896 314.64 75.56ZM318.492 61.952L311.904 60.872L309.744 66.308H313.2L318.492 61.952ZM348.295 86V73.472C348.295 70.052 346.567 68 343.291 68C341.095 68 339.367 69.188 337.783 70.772C337.135 69.188 335.803 68 333.391 68C331.123 68 329.503 69.152 327.919 70.772L327.523 68.36H322.735V86H328.171V74.372C329.143 73.436 330.043 72.824 331.051 72.824C332.311 72.824 332.779 73.688 332.779 74.948V86H338.215V74.372C339.187 73.436 340.123 72.824 341.095 72.824C342.355 72.824 342.823 73.688 342.823 74.948V86H348.295ZM367.179 77.144C367.179 72.032 364.767 68 359.367 68C354.579 68 351.051 71.492 351.051 77.252C351.051 83.552 354.831 86.36 360.123 86.36C362.895 86.36 365.235 85.604 367.143 84.38L366.603 80.564C364.659 81.68 362.751 82.4 360.807 82.4C358.431 82.4 356.775 81.32 356.487 78.548H367.071C367.143 78.26 367.179 77.684 367.179 77.144ZM361.995 75.56H356.451C356.631 72.86 357.711 71.528 359.223 71.528C360.879 71.528 361.815 72.896 361.995 75.56ZM385.787 86V73.472C385.787 70.052 384.059 68 380.783 68C378.551 68 376.859 69.224 375.275 70.772L374.879 68.36H370.091V86H375.527V74.408C376.499 73.436 377.471 72.824 378.515 72.824C379.811 72.824 380.315 73.688 380.315 74.948V86H385.787ZM399.939 85.892L399.255 81.428C398.859 81.536 398.427 81.608 397.959 81.608C396.483 81.608 395.799 80.96 395.799 79.52V72.788H399.831L399.147 68.36H395.799V62.276L390.399 63.104V68.36H388.059V72.788H390.399V80.384C390.399 84.884 393.027 86.252 396.807 86.252C398.247 86.252 399.075 86.144 399.939 85.892ZM416.293 80.564C416.293 77.288 414.637 76.1 409.957 74.84C407.473 74.156 406.969 73.76 406.969 73.04C406.969 72.356 407.545 71.888 408.841 71.888C410.533 71.888 412.729 72.5 414.637 73.544L415.321 69.404C413.485 68.576 411.181 68.108 408.805 68.108C404.485 68.108 402.037 70.304 402.037 73.58C402.037 76.892 403.909 78.08 408.337 79.232C410.821 79.844 411.325 80.24 411.325 81.14C411.325 81.968 410.605 82.472 409.093 82.472C407.077 82.472 404.521 81.68 402.433 80.384L401.785 84.524C403.621 85.496 406.249 86.288 409.057 86.288C413.737 86.288 416.293 84.272 416.293 80.564Z" fill="black"/>
<path d="M290.175 150.9L283.325 133.65H282.025L275.175 151H276.425L278.7 145.1H286.6L288.975 151.175L290.175 150.9ZM286.2 144.025H279.15L282.65 135L286.2 144.025ZM303.158 144.8C303.158 140.85 300.933 139 298.333 139C296.633 139 295.533 139.875 294.583 140.95L294.283 139.25H293.433V155.525L294.608 155.275V150.55C295.533 150.925 296.583 151.15 297.758 151.15C300.608 151.15 303.158 149.075 303.158 144.8ZM301.933 144.85C301.933 148.45 300.083 150.125 297.733 150.125C296.558 150.125 295.533 149.85 294.608 149.4V142.225C295.783 140.9 296.883 140.075 298.308 140.075C300.408 140.075 301.933 141.75 301.933 144.85ZM312.168 140.1L311.968 139C310.018 139.025 308.643 140.375 307.743 141.7L307.368 139.25H306.593V151H307.768V143.275C308.568 141.7 310.243 140.225 312.168 140.1ZM323.618 144.875C323.618 141.625 322.118 139 319.118 139C316.268 139 314.118 141.375 314.118 145.125C314.118 148.95 316.193 151.25 319.293 151.25C320.968 151.25 322.518 150.5 323.593 149.525L323.418 148.425C322.268 149.475 320.768 150.225 319.343 150.225C316.718 150.225 315.318 148.125 315.318 145.125H323.618C323.618 145.025 323.618 144.95 323.618 144.875ZM322.368 144.15H315.368C315.643 141.7 316.893 139.975 319.118 139.975C321.168 139.975 322.293 141.85 322.368 144.15ZM319.718 137.2L317.118 133.325L315.393 133.7L318.843 137.2H319.718ZM334.478 147.9C334.478 145.925 333.103 145 330.428 144.275C328.328 143.7 327.628 143.15 327.628 142.05C327.628 140.975 328.453 140.1 330.303 140.1C331.428 140.1 332.528 140.4 333.603 140.95L333.803 139.825C332.853 139.35 331.678 139.025 330.353 139.025C328.028 139.025 326.478 140.325 326.478 142.125C326.478 143.925 327.603 144.775 330.078 145.45C332.603 146.15 333.328 146.775 333.328 148C333.328 149.375 332.178 150.15 330.428 150.15C328.878 150.15 327.453 149.625 326.353 149L326.128 150.15C327.178 150.725 328.728 151.2 330.303 151.2C332.753 151.2 334.478 150.025 334.478 147.9ZM357.64 151V142.5C357.64 140.25 356.34 139.025 353.94 139.025C352.39 139.025 351.04 139.45 349.715 140.05L349.865 141.15C351.165 140.475 352.54 140.1 353.89 140.1C355.515 140.1 356.49 140.9 356.49 142.55V143.575C350.84 144.1 348.84 145.5 348.84 148.125C348.84 150.25 350.415 151.25 352.39 151.25C353.865 151.25 355.315 150.5 356.54 149.425L356.815 151H357.64ZM356.49 148.35C355.215 149.475 353.69 150.225 352.44 150.225C351.115 150.225 350.04 149.525 350.04 148.025C350.04 146.1 351.64 145.075 356.49 144.55V148.35ZM370.182 139.25H368.957L365.207 149.7L361.407 139.125L360.232 139.375L364.632 151.125H365.707L370.182 139.25ZM382.409 145.125C382.409 141.225 380.159 139 377.209 139C374.359 139 372.034 141.225 372.034 145.125C372.034 149 374.284 151.25 377.209 151.25C380.084 151.25 382.409 149 382.409 145.125ZM381.184 145.125C381.184 148.175 379.759 150.225 377.209 150.225C374.684 150.225 373.259 148.075 373.259 145.125C373.259 142.1 374.659 140.025 377.209 140.025C379.759 140.025 381.184 142.175 381.184 145.125ZM387.523 135.05C387.523 134.5 387.073 134.05 386.523 134.05C385.973 134.05 385.498 134.5 385.498 135.05C385.498 135.575 385.973 136.075 386.523 136.075C387.073 136.075 387.523 135.575 387.523 135.05ZM387.098 151V139.25H385.948V151H387.098ZM396.963 140.1L396.763 139C394.813 139.025 393.438 140.375 392.538 141.7L392.163 139.25H391.388V151H392.563V143.275C393.363 141.7 395.038 140.225 396.963 140.1ZM416.111 134.25L415.936 133.125C415.711 133.1 415.536 133.1 415.161 133.1C413.211 133.1 412.136 134.15 412.136 136.175V139.25H410.311V140.25H412.136V151H413.286V140.25H415.936L415.761 139.25H413.286V136.225C413.286 134.775 414.011 134.175 415.211 134.175C415.686 134.175 415.886 134.2 416.111 134.25ZM426.371 151V142.5C426.371 140.25 425.071 139.025 422.671 139.025C421.121 139.025 419.771 139.45 418.446 140.05L418.596 141.15C419.896 140.475 421.271 140.1 422.621 140.1C424.246 140.1 425.221 140.9 425.221 142.55V143.575C419.571 144.1 417.571 145.5 417.571 148.125C417.571 150.25 419.146 151.25 421.121 151.25C422.596 151.25 424.046 150.5 425.271 149.425L425.546 151H426.371ZM425.221 148.35C423.946 149.475 422.421 150.225 421.171 150.225C419.846 150.225 418.771 149.525 418.771 148.025C418.771 146.1 420.371 145.075 425.221 144.55V148.35ZM432.132 135.05C432.132 134.5 431.682 134.05 431.132 134.05C430.582 134.05 430.107 134.5 430.107 135.05C430.107 135.575 430.582 136.075 431.132 136.075C431.682 136.075 432.132 135.575 432.132 135.05ZM431.707 151V139.25H430.557V151H431.707ZM440.922 150.95L440.747 150C440.472 150.075 439.947 150.175 439.572 150.175C438.272 150.175 437.722 149.7 437.722 148.325V140.25H440.747L440.597 139.25H437.722V134.825L436.547 135.075V139.25H434.722V140.25H436.547V148.525C436.547 150.5 437.647 151.2 439.322 151.2C439.972 151.2 440.622 151.075 440.922 150.95ZM465.601 144.8C465.601 140.85 463.376 139 460.776 139C459.076 139 457.976 139.875 457.026 140.95L456.726 139.25H455.876V155.525L457.051 155.275V150.55C457.976 150.925 459.026 151.15 460.201 151.15C463.051 151.15 465.601 149.075 465.601 144.8ZM464.376 144.85C464.376 148.45 462.526 150.125 460.176 150.125C459.001 150.125 457.976 149.85 457.051 149.4V142.225C458.226 140.9 459.326 140.075 460.751 140.075C462.851 140.075 464.376 141.75 464.376 144.85ZM470.36 151V133.125L469.21 133.375V151H470.36ZM483.524 151V139.25H482.349V148.05C480.874 149.425 479.524 150.175 478.224 150.175C476.549 150.175 475.699 149.2 475.699 147.425V139.25H474.524V147.525C474.524 149.875 475.674 151.25 478.099 151.25C479.649 151.25 480.949 150.475 482.374 149.225L482.674 151H483.524ZM495.138 147.9C495.138 145.925 493.763 145 491.088 144.275C488.988 143.7 488.288 143.15 488.288 142.05C488.288 140.975 489.113 140.1 490.963 140.1C492.088 140.1 493.188 140.4 494.263 140.95L494.463 139.825C493.513 139.35 492.338 139.025 491.013 139.025C488.688 139.025 487.138 140.325 487.138 142.125C487.138 143.925 488.263 144.775 490.738 145.45C493.263 146.15 493.988 146.775 493.988 148C493.988 149.375 492.838 150.15 491.088 150.15C489.538 150.15 488.113 149.625 487.013 149L486.788 150.15C487.838 150.725 489.388 151.2 490.963 151.2C493.413 151.2 495.138 150.025 495.138 147.9ZM500.252 135.05C500.252 134.5 499.802 134.05 499.252 134.05C498.702 134.05 498.227 134.5 498.227 135.05C498.227 135.575 498.702 136.075 499.252 136.075C499.802 136.075 500.252 135.575 500.252 135.05ZM499.827 151V139.25H498.677V151H499.827ZM512.843 144.875C512.843 141.625 511.343 139 508.343 139C505.493 139 503.343 141.375 503.343 145.125C503.343 148.95 505.418 151.25 508.518 151.25C510.193 151.25 511.743 150.5 512.818 149.525L512.643 148.425C511.493 149.475 509.993 150.225 508.568 150.225C505.943 150.225 504.543 148.125 504.543 145.125H512.843C512.843 145.025 512.843 144.95 512.843 144.875ZM511.593 144.15H504.593C504.868 141.7 506.118 139.975 508.343 139.975C510.393 139.975 511.518 141.85 511.593 144.15ZM525.077 151V139.25H523.902V148.05C522.427 149.425 521.077 150.175 519.777 150.175C518.102 150.175 517.252 149.2 517.252 147.425V139.25H516.077V147.525C516.077 149.875 517.227 151.25 519.652 151.25C521.202 151.25 522.502 150.475 523.927 149.225L524.227 151H525.077ZM534.79 140.1L534.59 139C532.64 139.025 531.265 140.375 530.365 141.7L529.99 139.25H529.215V151H530.39V143.275C531.19 141.7 532.865 140.225 534.79 140.1ZM544.771 147.9C544.771 145.925 543.396 145 540.721 144.275C538.621 143.7 537.921 143.15 537.921 142.05C537.921 140.975 538.746 140.1 540.596 140.1C541.721 140.1 542.821 140.4 543.896 140.95L544.096 139.825C543.146 139.35 541.971 139.025 540.646 139.025C538.321 139.025 536.771 140.325 536.771 142.125C536.771 143.925 537.896 144.775 540.371 145.45C542.896 146.15 543.621 146.775 543.621 148C543.621 149.375 542.471 150.15 540.721 150.15C539.171 150.15 537.746 149.625 536.646 149L536.421 150.15C537.471 150.725 539.021 151.2 540.596 151.2C543.046 151.2 544.771 150.025 544.771 147.9ZM569.634 144.8C569.634 140.85 567.409 139 564.809 139C563.109 139 562.009 139.875 561.059 140.95L560.759 139.25H559.909V155.525L561.084 155.275V150.55C562.009 150.925 563.059 151.15 564.234 151.15C567.084 151.15 569.634 149.075 569.634 144.8ZM568.409 144.85C568.409 148.45 566.559 150.125 564.209 150.125C563.034 150.125 562.009 149.85 561.084 149.4V142.225C562.259 140.9 563.359 140.075 564.784 140.075C566.884 140.075 568.409 141.75 568.409 144.85ZM578.643 140.1L578.443 139C576.493 139.025 575.118 140.375 574.218 141.7L573.843 139.25H573.068V151H574.243V143.275C575.043 141.7 576.718 140.225 578.643 140.1ZM590.529 145.125C590.529 141.225 588.279 139 585.329 139C582.479 139 580.154 141.225 580.154 145.125C580.154 149 582.404 151.25 585.329 151.25C588.204 151.25 590.529 149 590.529 145.125ZM589.304 145.125C589.304 148.175 587.879 150.225 585.329 150.225C582.804 150.225 581.379 148.075 581.379 145.125C581.379 142.1 582.779 140.025 585.329 140.025C587.879 140.025 589.304 142.175 589.304 145.125ZM603.618 144.8C603.618 140.85 601.393 139 598.793 139C597.093 139 595.993 139.875 595.043 140.95L594.743 139.25H593.893V155.525L595.068 155.275V150.55C595.993 150.925 597.043 151.15 598.218 151.15C601.068 151.15 603.618 149.075 603.618 144.8ZM602.393 144.85C602.393 148.45 600.543 150.125 598.193 150.125C597.018 150.125 595.993 149.85 595.068 149.4V142.225C596.243 140.9 597.343 140.075 598.768 140.075C600.868 140.075 602.393 141.75 602.393 144.85ZM616.653 145.125C616.653 141.225 614.403 139 611.453 139C608.603 139 606.278 141.225 606.278 145.125C606.278 149 608.528 151.25 611.453 151.25C614.328 151.25 616.653 149 616.653 145.125ZM615.428 145.125C615.428 148.175 614.003 150.225 611.453 150.225C608.928 150.225 607.503 148.075 607.503 145.125C607.503 142.1 608.903 140.025 611.453 140.025C614.003 140.025 615.428 142.175 615.428 145.125ZM627.491 147.9C627.491 145.925 626.116 145 623.441 144.275C621.341 143.7 620.641 143.15 620.641 142.05C620.641 140.975 621.466 140.1 623.316 140.1C624.441 140.1 625.541 140.4 626.616 140.95L626.816 139.825C625.866 139.35 624.691 139.025 623.366 139.025C621.041 139.025 619.491 140.325 619.491 142.125C619.491 143.925 620.616 144.775 623.091 145.45C625.616 146.15 626.341 146.775 626.341 148C626.341 149.375 625.191 150.15 623.441 150.15C621.891 150.15 620.466 149.625 619.366 149L619.141 150.15C620.191 150.725 621.741 151.2 623.316 151.2C625.766 151.2 627.491 150.025 627.491 147.9ZM632.606 135.05C632.606 134.5 632.156 134.05 631.606 134.05C631.056 134.05 630.581 134.5 630.581 135.05C630.581 135.575 631.056 136.075 631.606 136.075C632.156 136.075 632.606 135.575 632.606 135.05ZM632.181 151V139.25H631.031V151H632.181ZM641.396 150.95L641.221 150C640.946 150.075 640.421 150.175 640.046 150.175C638.746 150.175 638.196 149.7 638.196 148.325V140.25H641.221L641.071 139.25H638.196V134.825L637.021 135.075V139.25H635.196V140.25H637.021V148.525C637.021 150.5 638.121 151.2 639.796 151.2C640.446 151.2 641.096 151.075 641.396 150.95ZM646.327 135.05C646.327 134.5 645.877 134.05 645.327 134.05C644.777 134.05 644.302 134.5 644.302 135.05C644.302 135.575 644.777 136.075 645.327 136.075C645.877 136.075 646.327 135.575 646.327 135.05ZM645.902 151V139.25H644.752V151H645.902ZM659.792 145.125C659.792 141.225 657.542 139 654.592 139C651.742 139 649.417 141.225 649.417 145.125C649.417 149 651.667 151.25 654.592 151.25C657.467 151.25 659.792 149 659.792 145.125ZM658.567 145.125C658.567 148.175 657.142 150.225 654.592 150.225C652.067 150.225 650.642 148.075 650.642 145.125C650.642 142.1 652.042 140.025 654.592 140.025C657.142 140.025 658.567 142.175 658.567 145.125ZM672.156 151V142.725C672.156 140.375 671.006 139 668.581 139C667.031 139 665.731 139.775 664.306 141.025L664.006 139.25H663.156V151H664.331V142.2C665.806 140.825 667.156 140.075 668.456 140.075C670.131 140.075 670.981 141.05 670.981 142.825V151H672.156ZM683.619 147.9C683.619 145.925 682.244 145 679.569 144.275C677.469 143.7 676.769 143.15 676.769 142.05C676.769 140.975 677.594 140.1 679.444 140.1C680.569 140.1 681.669 140.4 682.744 140.95L682.944 139.825C681.994 139.35 680.819 139.025 679.494 139.025C677.169 139.025 675.619 140.325 675.619 142.125C675.619 143.925 676.744 144.775 679.219 145.45C681.744 146.15 682.469 146.775 682.469 148C682.469 149.375 681.319 150.15 679.569 150.15C678.019 150.15 676.594 149.625 675.494 149L675.269 150.15C676.319 150.725 677.869 151.2 679.444 151.2C681.894 151.2 683.619 150.025 683.619 147.9ZM688.684 148.975H687.159L685.834 154.175L686.459 154.325L688.684 148.975ZM705.805 135.05C705.805 134.5 705.355 134.05 704.805 134.05C704.255 134.05 703.78 134.5 703.78 135.05C703.78 135.575 704.255 136.075 704.805 136.075C705.355 136.075 705.805 135.575 705.805 135.05ZM705.38 153.075V139.25H704.23V152.95C704.23 154 703.73 154.4 702.905 154.4C702.58 154.4 702.355 154.375 702.005 154.325L702.18 155.4C702.405 155.425 702.805 155.45 703.08 155.45C704.355 155.45 705.38 154.75 705.38 153.075ZM711.445 133.75H709.92L708.945 138.95L709.595 139.1L711.445 133.75ZM722.358 151V142.5C722.358 140.25 721.058 139.025 718.658 139.025C717.108 139.025 715.758 139.45 714.433 140.05L714.583 141.15C715.883 140.475 717.258 140.1 718.608 140.1C720.233 140.1 721.208 140.9 721.208 142.55V143.575C715.558 144.1 713.558 145.5 713.558 148.125C713.558 150.25 715.133 151.25 717.108 151.25C718.583 151.25 720.033 150.5 721.258 149.425L721.533 151H722.358ZM721.208 148.35C719.933 149.475 718.408 150.225 717.158 150.225C715.833 150.225 714.758 149.525 714.758 148.025C714.758 146.1 716.358 145.075 721.208 144.55V148.35ZM728.119 135.05C728.119 134.5 727.669 134.05 727.119 134.05C726.569 134.05 726.094 134.5 726.094 135.05C726.094 135.575 726.569 136.075 727.119 136.075C727.669 136.075 728.119 135.575 728.119 135.05ZM727.694 151V139.25H726.544V151H727.694ZM752.107 149.825L751.957 148.725C750.732 149.775 749.557 150.225 748.282 150.225C745.632 150.225 744.207 148.075 744.207 145.125C744.207 142.1 745.682 140.025 748.182 140.025C749.532 140.025 750.632 140.5 751.807 141.5L752.032 140.3C751.007 139.525 749.707 139 748.232 139C745.307 139 742.982 141.225 742.982 145.125C742.982 149 745.282 151.25 748.157 151.25C749.732 151.25 751.032 150.725 752.107 149.825ZM760.929 140.1L760.729 139C758.779 139.025 757.404 140.375 756.504 141.7L756.129 139.25H755.354V151H756.529V143.275C757.329 141.7 759.004 140.225 760.929 140.1ZM772.38 144.875C772.38 141.625 770.88 139 767.88 139C765.03 139 762.88 141.375 762.88 145.125C762.88 148.95 764.955 151.25 768.055 151.25C769.73 151.25 771.28 150.5 772.355 149.525L772.18 148.425C771.03 149.475 769.53 150.225 768.105 150.225C765.48 150.225 764.08 148.125 764.08 145.125H772.38C772.38 145.025 772.38 144.95 772.38 144.875ZM771.13 144.15H764.13C764.405 141.7 765.655 139.975 767.88 139.975C769.93 139.975 771.055 141.85 771.13 144.15ZM771.28 133.7L769.58 133.325L766.93 137.2H767.83L771.28 133.7ZM784.489 144.875C784.489 141.625 782.989 139 779.989 139C777.139 139 774.989 141.375 774.989 145.125C774.989 148.95 777.064 151.25 780.164 151.25C781.839 151.25 783.389 150.5 784.464 149.525L784.289 148.425C783.139 149.475 781.639 150.225 780.214 150.225C777.589 150.225 776.189 148.125 776.189 145.125H784.489C784.489 145.025 784.489 144.95 784.489 144.875ZM783.239 144.15H776.239C776.514 141.7 777.764 139.975 779.989 139.975C782.039 139.975 783.164 141.85 783.239 144.15ZM783.389 133.7L781.689 133.325L779.039 137.2H779.939L783.389 133.7ZM808.646 151V133.125L807.471 133.375V139.7C806.546 139.3 805.521 139.075 804.321 139.075C801.471 139.075 798.921 141.175 798.921 145.45C798.921 149.4 801.146 151.25 803.746 151.25C805.446 151.25 806.571 150.35 807.496 149.275L807.796 151H808.646ZM807.471 148.025C806.321 149.325 805.196 150.175 803.771 150.175C801.671 150.175 800.146 148.475 800.146 145.4C800.146 141.775 802.021 140.1 804.346 140.1C805.521 140.1 806.546 140.375 807.471 140.85V148.025ZM821.53 144.875C821.53 141.625 820.03 139 817.03 139C814.18 139 812.03 141.375 812.03 145.125C812.03 148.95 814.105 151.25 817.205 151.25C818.88 151.25 820.43 150.5 821.505 149.525L821.33 148.425C820.18 149.475 818.68 150.225 817.255 150.225C814.63 150.225 813.23 148.125 813.23 145.125H821.53C821.53 145.025 821.53 144.95 821.53 144.875ZM820.28 144.15H813.28C813.555 141.7 814.805 139.975 817.03 139.975C819.08 139.975 820.205 141.85 820.28 144.15ZM832.39 147.9C832.39 145.925 831.015 145 828.34 144.275C826.24 143.7 825.54 143.15 825.54 142.05C825.54 140.975 826.365 140.1 828.215 140.1C829.34 140.1 830.44 140.4 831.515 140.95L831.715 139.825C830.765 139.35 829.59 139.025 828.265 139.025C825.94 139.025 824.39 140.325 824.39 142.125C824.39 143.925 825.515 144.775 827.99 145.45C830.515 146.15 831.24 146.775 831.24 148C831.24 149.375 830.09 150.15 828.34 150.15C826.79 150.15 825.365 149.625 824.265 149L824.04 150.15C825.09 150.725 826.64 151.2 828.215 151.2C830.665 151.2 832.39 150.025 832.39 147.9ZM856.252 144.875C856.252 141.625 854.752 139 851.752 139C848.902 139 846.752 141.375 846.752 145.125C846.752 148.95 848.827 151.25 851.927 151.25C853.602 151.25 855.152 150.5 856.227 149.525L856.052 148.425C854.902 149.475 853.402 150.225 851.977 150.225C849.352 150.225 847.952 148.125 847.952 145.125H856.252C856.252 145.025 856.252 144.95 856.252 144.875ZM855.002 144.15H848.002C848.277 141.7 849.527 139.975 851.752 139.975C853.802 139.975 854.927 141.85 855.002 144.15ZM855.152 133.7L853.452 133.325L850.802 137.2H851.702L855.152 133.7ZM860.962 151V133.125L859.812 133.375V151H860.962ZM874.001 144.875C874.001 141.625 872.501 139 869.501 139C866.651 139 864.501 141.375 864.501 145.125C864.501 148.95 866.576 151.25 869.676 151.25C871.351 151.25 872.901 150.5 873.976 149.525L873.801 148.425C872.651 149.475 871.151 150.225 869.726 150.225C867.101 150.225 865.701 148.125 865.701 145.125H874.001C874.001 145.025 874.001 144.95 874.001 144.875ZM872.751 144.15H865.751C866.026 141.7 867.276 139.975 869.501 139.975C871.551 139.975 872.676 141.85 872.751 144.15ZM872.901 133.7L871.201 133.325L868.551 137.2H869.451L872.901 133.7ZM893.936 151V142.675C893.936 140.35 892.861 139 890.436 139C888.836 139 887.511 139.825 886.036 141.125C885.636 139.75 884.586 139 882.736 139C881.211 139 879.936 139.75 878.536 140.95L878.236 139.25H877.386V151H878.561V142.125C880.011 140.8 881.361 140.075 882.611 140.075C884.311 140.075 885.086 141.05 885.086 142.825V151H886.236V142.15C887.711 140.8 889.036 140.075 890.286 140.075C891.986 140.075 892.761 141.05 892.761 142.825V151H893.936ZM906.667 144.875C906.667 141.625 905.167 139 902.167 139C899.317 139 897.167 141.375 897.167 145.125C897.167 148.95 899.242 151.25 902.342 151.25C904.017 151.25 905.567 150.5 906.642 149.525L906.467 148.425C905.317 149.475 903.817 150.225 902.392 150.225C899.767 150.225 898.367 148.125 898.367 145.125H906.667C906.667 145.025 906.667 144.95 906.667 144.875ZM905.417 144.15H898.417C898.692 141.7 899.942 139.975 902.167 139.975C904.217 139.975 905.342 141.85 905.417 144.15ZM919.052 151V142.725C919.052 140.375 917.902 139 915.477 139C913.927 139 912.627 139.775 911.202 141.025L910.902 139.25H910.052V151H911.227V142.2C912.702 140.825 914.052 140.075 915.352 140.075C917.027 140.075 917.877 141.05 917.877 142.825V151H919.052ZM927.965 150.95L927.79 150C927.515 150.075 926.99 150.175 926.615 150.175C925.315 150.175 924.765 149.7 924.765 148.325V140.25H927.79L927.64 139.25H924.765V134.825L923.59 135.075V139.25H921.765V140.25H923.59V148.525C923.59 150.5 924.69 151.2 926.365 151.2C927.015 151.2 927.665 151.075 927.965 150.95ZM938.62 147.9C938.62 145.925 937.245 145 934.57 144.275C932.47 143.7 931.77 143.15 931.77 142.05C931.77 140.975 932.595 140.1 934.445 140.1C935.57 140.1 936.67 140.4 937.745 140.95L937.945 139.825C936.995 139.35 935.82 139.025 934.495 139.025C932.17 139.025 930.62 140.325 930.62 142.125C930.62 143.925 931.745 144.775 934.22 145.45C936.745 146.15 937.47 146.775 937.47 148C937.47 149.375 936.32 150.15 934.57 150.15C933.02 150.15 931.595 149.625 930.495 149L930.27 150.15C931.32 150.725 932.87 151.2 934.445 151.2C936.895 151.2 938.62 150.025 938.62 147.9ZM962.758 151V133.125L961.583 133.375V139.7C960.658 139.3 959.633 139.075 958.433 139.075C955.583 139.075 953.033 141.175 953.033 145.45C953.033 149.4 955.258 151.25 957.858 151.25C959.558 151.25 960.683 150.35 961.608 149.275L961.908 151H962.758ZM961.583 148.025C960.433 149.325 959.308 150.175 957.883 150.175C955.783 150.175 954.258 148.475 954.258 145.4C954.258 141.775 956.133 140.1 958.458 140.1C959.633 140.1 960.658 140.375 961.583 140.85V148.025ZM976.517 145.125C976.517 141.225 974.267 139 971.317 139C968.467 139 966.142 141.225 966.142 145.125C966.142 149 968.392 151.25 971.317 151.25C974.192 151.25 976.517 149 976.517 145.125ZM975.292 145.125C975.292 148.175 973.867 150.225 971.317 150.225C968.792 150.225 967.367 148.075 967.367 145.125C967.367 142.1 968.767 140.025 971.317 140.025C973.867 140.025 975.292 142.175 975.292 145.125ZM988.881 151V142.725C988.881 140.375 987.731 139 985.306 139C983.756 139 982.456 139.775 981.031 141.025L980.731 139.25H979.881V151H981.056V142.2C982.531 140.825 983.881 140.075 985.181 140.075C986.856 140.075 987.706 141.05 987.706 142.825V151H988.881ZM997.794 150.95L997.619 150C997.344 150.075 996.819 150.175 996.444 150.175C995.144 150.175 994.594 149.7 994.594 148.325V140.25H997.619L997.469 139.25H994.594V134.825L993.419 135.075V139.25H991.594V140.25H993.419V148.525C993.419 150.5 994.519 151.2 996.194 151.2C996.844 151.2 997.494 151.075 997.794 150.95ZM1021.6 151V139.25H1020.42V148.05C1018.95 149.425 1017.6 150.175 1016.3 150.175C1014.62 150.175 1013.77 149.2 1013.77 147.425V139.25H1012.6V147.525C1012.6 149.875 1013.75 151.25 1016.17 151.25C1017.72 151.25 1019.02 150.475 1020.45 149.225L1020.75 151H1021.6ZM1034.74 151V142.725C1034.74 140.375 1033.59 139 1031.16 139C1029.61 139 1028.31 139.775 1026.89 141.025L1026.59 139.25H1025.74V151H1026.91V142.2C1028.39 140.825 1029.74 140.075 1031.04 140.075C1032.71 140.075 1033.56 141.05 1033.56 142.825V151H1034.74ZM1056.07 140.1L1055.87 139C1053.92 139.025 1052.55 140.375 1051.65 141.7L1051.27 139.25H1050.5V151H1051.67V143.275C1052.47 141.7 1054.15 140.225 1056.07 140.1ZM1067.08 144.875C1067.08 141.625 1065.58 139 1062.58 139C1059.73 139 1057.58 141.375 1057.58 145.125C1057.58 148.95 1059.66 151.25 1062.76 151.25C1064.43 151.25 1065.98 150.5 1067.06 149.525L1066.88 148.425C1065.73 149.475 1064.23 150.225 1062.81 150.225C1060.18 150.225 1058.78 148.125 1058.78 145.125H1067.08C1067.08 145.025 1067.08 144.95 1067.08 144.875ZM1065.83 144.15H1058.83C1059.11 141.7 1060.36 139.975 1062.58 139.975C1064.63 139.975 1065.76 141.85 1065.83 144.15ZM1079.47 151V142.725C1079.47 140.375 1078.32 139 1075.89 139C1074.34 139 1073.04 139.775 1071.62 141.025L1071.32 139.25H1070.47V151H1071.64V142.2C1073.12 140.825 1074.47 140.075 1075.77 140.075C1077.44 140.075 1078.29 141.05 1078.29 142.825V151H1079.47ZM1092.46 151V142.725C1092.46 140.375 1091.31 139 1088.88 139C1087.33 139 1086.03 139.775 1084.61 141.025L1084.31 139.25H1083.46V151H1084.63V142.2C1086.11 140.825 1087.46 140.075 1088.76 140.075C1090.43 140.075 1091.28 141.05 1091.28 142.825V151H1092.46ZM1105.17 144.875C1105.17 141.625 1103.67 139 1100.67 139C1097.82 139 1095.67 141.375 1095.67 145.125C1095.67 148.95 1097.74 151.25 1100.84 151.25C1102.52 151.25 1104.07 150.5 1105.14 149.525L1104.97 148.425C1103.82 149.475 1102.32 150.225 1100.89 150.225C1098.27 150.225 1096.87 148.125 1096.87 145.125H1105.17C1105.17 145.025 1105.17 144.95 1105.17 144.875ZM1103.92 144.15H1096.92C1097.19 141.7 1098.44 139.975 1100.67 139.975C1102.72 139.975 1103.84 141.85 1103.92 144.15ZM1129.28 155.275V139.875C1128.15 139.45 1126.78 139.075 1125.25 139.075C1122.15 139.075 1119.6 141.175 1119.6 145.45C1119.6 149.4 1121.83 151.25 1124.4 151.25C1126.05 151.25 1127.23 150.325 1128.1 149.3V155.525L1129.28 155.275ZM1128.1 148.025C1126.95 149.325 1125.83 150.175 1124.43 150.175C1122.35 150.175 1120.83 148.475 1120.83 145.4C1120.83 141.75 1122.75 140.1 1125.1 140.1C1126.38 140.1 1127.35 140.375 1128.1 140.65V148.025ZM1142.29 151V139.25H1141.11V148.05C1139.64 149.425 1138.29 150.175 1136.99 150.175C1135.31 150.175 1134.46 149.2 1134.46 147.425V139.25H1133.29V147.525C1133.29 149.875 1134.44 151.25 1136.86 151.25C1138.41 151.25 1139.71 150.475 1141.14 149.225L1141.44 151H1142.29ZM1155.15 144.875C1155.15 141.625 1153.65 139 1150.65 139C1147.8 139 1145.65 141.375 1145.65 145.125C1145.65 148.95 1147.72 151.25 1150.82 151.25C1152.5 151.25 1154.05 150.5 1155.12 149.525L1154.95 148.425C1153.8 149.475 1152.3 150.225 1150.87 150.225C1148.25 150.225 1146.85 148.125 1146.85 145.125H1155.15C1155.15 145.025 1155.15 144.95 1155.15 144.875ZM1153.9 144.15H1146.9C1147.17 141.7 1148.42 139.975 1150.65 139.975C1152.7 139.975 1153.82 141.85 1153.9 144.15ZM1172.06 135.05C1172.06 134.5 1171.61 134.05 1171.06 134.05C1170.51 134.05 1170.03 134.5 1170.03 135.05C1170.03 135.575 1170.51 136.075 1171.06 136.075C1171.61 136.075 1172.06 135.575 1172.06 135.05ZM1171.63 153.075V139.25H1170.48V152.95C1170.48 154 1169.98 154.4 1169.16 154.4C1168.83 154.4 1168.61 154.375 1168.26 154.325L1168.43 155.4C1168.66 155.425 1169.06 155.45 1169.33 155.45C1170.61 155.45 1171.63 154.75 1171.63 153.075ZM1177.7 133.75H1176.17L1175.2 138.95L1175.85 139.1L1177.7 133.75ZM1188.61 151V142.5C1188.61 140.25 1187.31 139.025 1184.91 139.025C1183.36 139.025 1182.01 139.45 1180.69 140.05L1180.84 141.15C1182.14 140.475 1183.51 140.1 1184.86 140.1C1186.49 140.1 1187.46 140.9 1187.46 142.55V143.575C1181.81 144.1 1179.81 145.5 1179.81 148.125C1179.81 150.25 1181.39 151.25 1183.36 151.25C1184.84 151.25 1186.29 150.5 1187.51 149.425L1187.79 151H1188.61ZM1187.46 148.35C1186.19 149.475 1184.66 150.225 1183.41 150.225C1182.09 150.225 1181.01 149.525 1181.01 148.025C1181.01 146.1 1182.61 145.075 1187.46 144.55V148.35ZM1194.37 135.05C1194.37 134.5 1193.92 134.05 1193.37 134.05C1192.82 134.05 1192.35 134.5 1192.35 135.05C1192.35 135.575 1192.82 136.075 1193.37 136.075C1193.92 136.075 1194.37 135.575 1194.37 135.05ZM1193.95 151V139.25H1192.8V151H1193.95ZM1218.03 151V142.5C1218.03 140.25 1216.73 139.025 1214.33 139.025C1212.78 139.025 1211.43 139.45 1210.11 140.05L1210.26 141.15C1211.56 140.475 1212.93 140.1 1214.28 140.1C1215.91 140.1 1216.88 140.9 1216.88 142.55V143.575C1211.23 144.1 1209.23 145.5 1209.23 148.125C1209.23 150.25 1210.81 151.25 1212.78 151.25C1214.26 151.25 1215.71 150.5 1216.93 149.425L1217.21 151H1218.03ZM1216.88 148.35C1215.61 149.475 1214.08 150.225 1212.83 150.225C1211.51 150.225 1210.43 149.525 1210.43 148.025C1210.43 146.1 1212.03 145.075 1216.88 144.55V148.35ZM1231.05 151V142.725C1231.05 140.375 1229.9 139 1227.47 139C1225.92 139 1224.62 139.775 1223.2 141.025L1222.9 139.25H1222.05V151H1223.22V142.2C1224.7 140.825 1226.05 140.075 1227.35 140.075C1229.02 140.075 1229.87 141.05 1229.87 142.825V151H1231.05ZM1236.78 135.05C1236.78 134.5 1236.33 134.05 1235.78 134.05C1235.23 134.05 1234.76 134.5 1234.76 135.05C1234.76 135.575 1235.23 136.075 1235.78 136.075C1236.33 136.075 1236.78 135.575 1236.78 135.05ZM1236.36 151V139.25H1235.21V151H1236.36ZM1257.2 151V142.675C1257.2 140.35 1256.12 139 1253.7 139C1252.1 139 1250.77 139.825 1249.3 141.125C1248.9 139.75 1247.85 139 1246 139C1244.47 139 1243.2 139.75 1241.8 140.95L1241.5 139.25H1240.65V151H1241.82V142.125C1243.27 140.8 1244.62 140.075 1245.87 140.075C1247.57 140.075 1248.35 141.05 1248.35 142.825V151H1249.5V142.15C1250.97 140.8 1252.3 140.075 1253.55 140.075C1255.25 140.075 1256.02 141.05 1256.02 142.825V151H1257.2ZM1269.93 144.875C1269.93 141.625 1268.43 139 1265.43 139C1262.58 139 1260.43 141.375 1260.43 145.125C1260.43 148.95 1262.51 151.25 1265.61 151.25C1267.28 151.25 1268.83 150.5 1269.91 149.525L1269.73 148.425C1268.58 149.475 1267.08 150.225 1265.66 150.225C1263.03 150.225 1261.63 148.125 1261.63 145.125H1269.93C1269.93 145.025 1269.93 144.95 1269.93 144.875ZM1268.68 144.15H1261.68C1261.96 141.7 1263.21 139.975 1265.43 139.975C1267.48 139.975 1268.61 141.85 1268.68 144.15ZM1268.83 133.7L1267.13 133.325L1264.48 137.2H1265.38L1268.83 133.7ZM1293.81 144.875C1293.81 141.625 1292.31 139 1289.31 139C1286.46 139 1284.31 141.375 1284.31 145.125C1284.31 148.95 1286.39 151.25 1289.49 151.25C1291.16 151.25 1292.71 150.5 1293.79 149.525L1293.61 148.425C1292.46 149.475 1290.96 150.225 1289.54 150.225C1286.91 150.225 1285.51 148.125 1285.51 145.125H1293.81C1293.81 145.025 1293.81 144.95 1293.81 144.875ZM1292.56 144.15H1285.56C1285.84 141.7 1287.09 139.975 1289.31 139.975C1291.36 139.975 1292.49 141.85 1292.56 144.15ZM1306.2 151V142.725C1306.2 140.375 1305.05 139 1302.62 139C1301.07 139 1299.77 139.775 1298.35 141.025L1298.05 139.25H1297.2V151H1298.37V142.2C1299.85 140.825 1301.2 140.075 1302.5 140.075C1304.17 140.075 1305.02 141.05 1305.02 142.825V151H1306.2ZM1338.51 151V142.675C1338.51 140.35 1337.43 139 1335.01 139C1333.41 139 1332.08 139.825 1330.61 141.125C1330.21 139.75 1329.16 139 1327.31 139C1325.78 139 1324.51 139.75 1323.11 140.95L1322.81 139.25H1321.96V151H1323.13V142.125C1324.58 140.8 1325.93 140.075 1327.18 140.075C1328.88 140.075 1329.66 141.05 1329.66 142.825V151H1330.81V142.15C1332.28 140.8 1333.61 140.075 1334.86 140.075C1336.56 140.075 1337.33 141.05 1337.33 142.825V151H1338.51ZM1351.24 144.875C1351.24 141.625 1349.74 139 1346.74 139C1343.89 139 1341.74 141.375 1341.74 145.125C1341.74 148.95 1343.81 151.25 1346.91 151.25C1348.59 151.25 1350.14 150.5 1351.21 149.525L1351.04 148.425C1349.89 149.475 1348.39 150.225 1346.96 150.225C1344.34 150.225 1342.94 148.125 1342.94 145.125H1351.24C1351.24 145.025 1351.24 144.95 1351.24 144.875ZM1349.99 144.15H1342.99C1343.26 141.7 1344.51 139.975 1346.74 139.975C1348.79 139.975 1349.91 141.85 1349.99 144.15ZM1376.07 144.8C1376.07 140.85 1373.87 139 1371.27 139C1369.62 139 1368.47 139.9 1367.57 140.925V133.125L1366.4 133.375V150.35C1367.52 150.8 1368.9 151.15 1370.42 151.15C1373.55 151.15 1376.07 149.075 1376.07 144.8ZM1374.85 144.85C1374.85 148.475 1372.92 150.125 1370.57 150.125C1369.3 150.125 1368.32 149.875 1367.57 149.575V142.225C1368.75 140.9 1369.85 140.075 1371.25 140.075C1373.35 140.075 1374.85 141.75 1374.85 144.85ZM1387.53 151V142.5C1387.53 140.25 1386.23 139.025 1383.83 139.025C1382.28 139.025 1380.93 139.45 1379.61 140.05L1379.76 141.15C1381.06 140.475 1382.43 140.1 1383.78 140.1C1385.41 140.1 1386.38 140.9 1386.38 142.55V143.575C1380.73 144.1 1378.73 145.5 1378.73 148.125C1378.73 150.25 1380.31 151.25 1382.28 151.25C1383.76 151.25 1385.21 150.5 1386.43 149.425L1386.71 151H1387.53ZM1386.38 148.35C1385.11 149.475 1383.58 150.225 1382.33 150.225C1381.01 150.225 1379.93 149.525 1379.93 148.025C1379.93 146.1 1381.53 145.075 1386.38 144.55V148.35ZM1399.02 147.9C1399.02 145.925 1397.64 145 1394.97 144.275C1392.87 143.7 1392.17 143.15 1392.17 142.05C1392.17 140.975 1392.99 140.1 1394.84 140.1C1395.97 140.1 1397.07 140.4 1398.14 140.95L1398.34 139.825C1397.39 139.35 1396.22 139.025 1394.89 139.025C1392.57 139.025 1391.02 140.325 1391.02 142.125C1391.02 143.925 1392.14 144.775 1394.62 145.45C1397.14 146.15 1397.87 146.775 1397.87 148C1397.87 149.375 1396.72 150.15 1394.97 150.15C1393.42 150.15 1391.99 149.625 1390.89 149L1390.67 150.15C1391.72 150.725 1393.27 151.2 1394.84 151.2C1397.29 151.2 1399.02 150.025 1399.02 147.9ZM1410.41 151V142.5C1410.41 140.25 1409.11 139.025 1406.71 139.025C1405.16 139.025 1403.81 139.45 1402.48 140.05L1402.63 141.15C1403.93 140.475 1405.31 140.1 1406.66 140.1C1408.28 140.1 1409.26 140.9 1409.26 142.55V143.575C1403.61 144.1 1401.61 145.5 1401.61 148.125C1401.61 150.25 1403.18 151.25 1405.16 151.25C1406.63 151.25 1408.08 150.5 1409.31 149.425L1409.58 151H1410.41ZM1409.26 148.35C1407.98 149.475 1406.46 150.225 1405.21 150.225C1403.88 150.225 1402.81 149.525 1402.81 148.025C1402.81 146.1 1404.41 145.075 1409.26 144.55V148.35ZM1423.42 151V142.725C1423.42 140.375 1422.27 139 1419.84 139C1418.29 139 1416.99 139.775 1415.57 141.025L1415.27 139.25H1414.42V151H1415.59V142.2C1417.07 140.825 1418.42 140.075 1419.72 140.075C1421.39 140.075 1422.24 141.05 1422.24 142.825V151H1423.42ZM1432.33 150.95L1432.16 150C1431.88 150.075 1431.36 150.175 1430.98 150.175C1429.68 150.175 1429.13 149.7 1429.13 148.325V140.25H1432.16L1432.01 139.25H1429.13V134.825L1427.96 135.075V139.25H1426.13V140.25H1427.96V148.525C1427.96 150.5 1429.06 151.2 1430.73 151.2C1431.38 151.2 1432.03 151.075 1432.33 150.95ZM1454.76 147.9C1454.76 145.925 1453.39 145 1450.71 144.275C1448.61 143.7 1447.91 143.15 1447.91 142.05C1447.91 140.975 1448.74 140.1 1450.59 140.1C1451.71 140.1 1452.81 140.4 1453.89 140.95L1454.09 139.825C1453.14 139.35 1451.96 139.025 1450.64 139.025C1448.31 139.025 1446.76 140.325 1446.76 142.125C1446.76 143.925 1447.89 144.775 1450.36 145.45C1452.89 146.15 1453.61 146.775 1453.61 148C1453.61 149.375 1452.46 150.15 1450.71 150.15C1449.16 150.15 1447.74 149.625 1446.64 149L1446.41 150.15C1447.46 150.725 1449.01 151.2 1450.59 151.2C1453.04 151.2 1454.76 150.025 1454.76 147.9ZM1466.98 151V139.25H1465.8V148.05C1464.33 149.425 1462.98 150.175 1461.68 150.175C1460 150.175 1459.15 149.2 1459.15 147.425V139.25H1457.98V147.525C1457.98 149.875 1459.13 151.25 1461.55 151.25C1463.1 151.25 1464.4 150.475 1465.83 149.225L1466.13 151H1466.98ZM1476.69 140.1L1476.49 139C1474.54 139.025 1473.16 140.375 1472.26 141.7L1471.89 139.25H1471.11V151H1472.29V143.275C1473.09 141.7 1474.76 140.225 1476.69 140.1ZM1500.19 151V133.125L1499.01 133.375V139.7C1498.09 139.3 1497.06 139.075 1495.86 139.075C1493.01 139.075 1490.46 141.175 1490.46 145.45C1490.46 149.4 1492.69 151.25 1495.29 151.25C1496.99 151.25 1498.11 150.35 1499.04 149.275L1499.34 151H1500.19ZM1499.01 148.025C1497.86 149.325 1496.74 150.175 1495.31 150.175C1493.21 150.175 1491.69 148.475 1491.69 145.4C1491.69 141.775 1493.56 140.1 1495.89 140.1C1497.06 140.1 1498.09 140.375 1499.01 140.85V148.025ZM1513.07 144.875C1513.07 141.625 1511.57 139 1508.57 139C1505.72 139 1503.57 141.375 1503.57 145.125C1503.57 148.95 1505.65 151.25 1508.75 151.25C1510.42 151.25 1511.97 150.5 1513.05 149.525L1512.87 148.425C1511.72 149.475 1510.22 150.225 1508.8 150.225C1506.17 150.225 1504.77 148.125 1504.77 145.125H1513.07C1513.07 145.025 1513.07 144.95 1513.07 144.875ZM1511.82 144.15H1504.82C1505.1 141.7 1506.35 139.975 1508.57 139.975C1510.62 139.975 1511.75 141.85 1511.82 144.15ZM1523.93 147.9C1523.93 145.925 1522.56 145 1519.88 144.275C1517.78 143.7 1517.08 143.15 1517.08 142.05C1517.08 140.975 1517.91 140.1 1519.76 140.1C1520.88 140.1 1521.98 140.4 1523.06 140.95L1523.26 139.825C1522.31 139.35 1521.13 139.025 1519.81 139.025C1517.48 139.025 1515.93 140.325 1515.93 142.125C1515.93 143.925 1517.06 144.775 1519.53 145.45C1522.06 146.15 1522.78 146.775 1522.78 148C1522.78 149.375 1521.63 150.15 1519.88 150.15C1518.33 150.15 1516.91 149.625 1515.81 149L1515.58 150.15C1516.63 150.725 1518.18 151.2 1519.76 151.2C1522.21 151.2 1523.93 150.025 1523.93 147.9ZM1544.64 140.1L1544.44 139C1542.49 139.025 1541.12 140.375 1540.22 141.7L1539.84 139.25H1539.07V151H1540.24V143.275C1541.04 141.7 1542.72 140.225 1544.64 140.1ZM1556.09 144.875C1556.09 141.625 1554.59 139 1551.59 139C1548.74 139 1546.59 141.375 1546.59 145.125C1546.59 148.95 1548.67 151.25 1551.77 151.25C1553.44 151.25 1554.99 150.5 1556.07 149.525L1555.89 148.425C1554.74 149.475 1553.24 150.225 1551.82 150.225C1549.19 150.225 1547.79 148.125 1547.79 145.125H1556.09C1556.09 145.025 1556.09 144.95 1556.09 144.875ZM1554.84 144.15H1547.84C1548.12 141.7 1549.37 139.975 1551.59 139.975C1553.64 139.975 1554.77 141.85 1554.84 144.15ZM1554.99 133.7L1553.29 133.325L1550.64 137.2H1551.54L1554.99 133.7ZM1564.13 134.25L1563.95 133.125C1563.73 133.1 1563.55 133.1 1563.18 133.1C1561.23 133.1 1560.15 134.15 1560.15 136.175V139.25H1558.33V140.25H1560.15V151H1561.3V140.25H1563.95L1563.78 139.25H1561.3V136.225C1561.3 134.775 1562.03 134.175 1563.23 134.175C1563.7 134.175 1563.9 134.2 1564.13 134.25ZM1575.41 144.875C1575.41 141.625 1573.91 139 1570.91 139C1568.06 139 1565.91 141.375 1565.91 145.125C1565.91 148.95 1567.98 151.25 1571.08 151.25C1572.76 151.25 1574.31 150.5 1575.38 149.525L1575.21 148.425C1574.06 149.475 1572.56 150.225 1571.13 150.225C1568.51 150.225 1567.11 148.125 1567.11 145.125H1575.41C1575.41 145.025 1575.41 144.95 1575.41 144.875ZM1574.16 144.15H1567.16C1567.43 141.7 1568.68 139.975 1570.91 139.975C1572.96 139.975 1574.08 141.85 1574.16 144.15ZM1574.31 133.7L1572.61 133.325L1569.96 137.2H1570.86L1574.31 133.7ZM1584.36 140.1L1584.16 139C1582.21 139.025 1580.84 140.375 1579.94 141.7L1579.56 139.25H1578.79V151H1579.96V143.275C1580.76 141.7 1582.44 140.225 1584.36 140.1ZM1595.38 144.875C1595.38 141.625 1593.88 139 1590.88 139C1588.03 139 1585.88 141.375 1585.88 145.125C1585.88 148.95 1587.95 151.25 1591.05 151.25C1592.73 151.25 1594.28 150.5 1595.35 149.525L1595.18 148.425C1594.03 149.475 1592.53 150.225 1591.1 150.225C1588.48 150.225 1587.08 148.125 1587.08 145.125H1595.38C1595.38 145.025 1595.38 144.95 1595.38 144.875ZM1594.13 144.15H1587.13C1587.4 141.7 1588.65 139.975 1590.88 139.975C1592.93 139.975 1594.05 141.85 1594.13 144.15ZM1607.76 151V142.725C1607.76 140.375 1606.61 139 1604.19 139C1602.64 139 1601.34 139.775 1599.91 141.025L1599.61 139.25H1598.76V151H1599.94V142.2C1601.41 140.825 1602.76 140.075 1604.06 140.075C1605.74 140.075 1606.59 141.05 1606.59 142.825V151H1607.76ZM1620.1 149.825L1619.95 148.725C1618.72 149.775 1617.55 150.225 1616.27 150.225C1613.62 150.225 1612.2 148.075 1612.2 145.125C1612.2 142.1 1613.67 140.025 1616.17 140.025C1617.52 140.025 1618.62 140.5 1619.8 141.5L1620.02 140.3C1619 139.525 1617.7 139 1616.22 139C1613.3 139 1610.97 141.225 1610.97 145.125C1610.97 149 1613.27 151.25 1616.15 151.25C1617.72 151.25 1619.02 150.725 1620.1 149.825ZM1631.85 144.875C1631.85 141.625 1630.35 139 1627.35 139C1624.5 139 1622.35 141.375 1622.35 145.125C1622.35 148.95 1624.43 151.25 1627.53 151.25C1629.2 151.25 1630.75 150.5 1631.83 149.525L1631.65 148.425C1630.5 149.475 1629 150.225 1627.58 150.225C1624.95 150.225 1623.55 148.125 1623.55 145.125H1631.85C1631.85 145.025 1631.85 144.95 1631.85 144.875ZM1630.6 144.15H1623.6C1623.88 141.7 1625.13 139.975 1627.35 139.975C1629.4 139.975 1630.53 141.85 1630.6 144.15ZM1642.71 147.9C1642.71 145.925 1641.34 145 1638.66 144.275C1636.56 143.7 1635.86 143.15 1635.86 142.05C1635.86 140.975 1636.69 140.1 1638.54 140.1C1639.66 140.1 1640.76 140.4 1641.84 140.95L1642.04 139.825C1641.09 139.35 1639.91 139.025 1638.59 139.025C1636.26 139.025 1634.71 140.325 1634.71 142.125C1634.71 143.925 1635.84 144.775 1638.31 145.45C1640.84 146.15 1641.56 146.775 1641.56 148C1641.56 149.375 1640.41 150.15 1638.66 150.15C1637.11 150.15 1635.69 149.625 1634.59 149L1634.36 150.15C1635.41 150.725 1636.96 151.2 1638.54 151.2C1640.99 151.2 1642.71 150.025 1642.71 147.9ZM284.825 167.25H283.6L279.85 177.7L276.05 167.125L274.875 167.375L279.275 179.125H280.35L284.825 167.25ZM289.519 163.05C289.519 162.5 289.069 162.05 288.519 162.05C287.969 162.05 287.494 162.5 287.494 163.05C287.494 163.575 287.969 164.075 288.519 164.075C289.069 164.075 289.519 163.575 289.519 163.05ZM289.094 179V167.25H287.944V179H289.094ZM302.385 179V161.125L301.21 161.375V167.7C300.285 167.3 299.26 167.075 298.06 167.075C295.21 167.075 292.66 169.175 292.66 173.45C292.66 177.4 294.885 179.25 297.485 179.25C299.185 179.25 300.31 178.35 301.235 177.275L301.535 179H302.385ZM301.21 176.025C300.06 177.325 298.935 178.175 297.51 178.175C295.41 178.175 293.885 176.475 293.885 173.4C293.885 169.775 295.76 168.1 298.085 168.1C299.26 168.1 300.285 168.375 301.21 168.85V176.025ZM315.269 172.875C315.269 169.625 313.769 167 310.769 167C307.919 167 305.769 169.375 305.769 173.125C305.769 176.95 307.844 179.25 310.944 179.25C312.619 179.25 314.169 178.5 315.244 177.525L315.069 176.425C313.919 177.475 312.419 178.225 310.994 178.225C308.369 178.225 306.969 176.125 306.969 173.125H315.269C315.269 173.025 315.269 172.95 315.269 172.875ZM314.019 172.15H307.019C307.294 169.7 308.544 167.975 310.769 167.975C312.819 167.975 313.944 169.85 314.019 172.15ZM314.169 161.7L312.469 161.325L309.819 165.2H310.719L314.169 161.7ZM328.253 173.125C328.253 169.225 326.003 167 323.053 167C320.203 167 317.878 169.225 317.878 173.125C317.878 177 320.128 179.25 323.053 179.25C325.928 179.25 328.253 177 328.253 173.125ZM327.028 173.125C327.028 176.175 325.603 178.225 323.053 178.225C320.528 178.225 319.103 176.075 319.103 173.125C319.103 170.1 320.503 168.025 323.053 168.025C325.603 168.025 327.028 170.175 327.028 173.125ZM339.092 175.9C339.092 173.925 337.717 173 335.042 172.275C332.942 171.7 332.242 171.15 332.242 170.05C332.242 168.975 333.067 168.1 334.917 168.1C336.042 168.1 337.142 168.4 338.217 168.95L338.417 167.825C337.467 167.35 336.292 167.025 334.967 167.025C332.642 167.025 331.092 168.325 331.092 170.125C331.092 171.925 332.217 172.775 334.692 173.45C337.217 174.15 337.942 174.775 337.942 176C337.942 177.375 336.792 178.15 335.042 178.15C333.492 178.15 332.067 177.625 330.967 177L330.742 178.15C331.792 178.725 333.342 179.2 334.917 179.2C337.367 179.2 339.092 178.025 339.092 175.9ZM352.382 161.85L351.332 161.625L339.532 181.825L340.582 182.05L352.382 161.85ZM356.292 163.05C356.292 162.5 355.842 162.05 355.292 162.05C354.742 162.05 354.267 162.5 354.267 163.05C354.267 163.575 354.742 164.075 355.292 164.075C355.842 164.075 356.292 163.575 356.292 163.05ZM355.867 179V167.25H354.717V179H355.867ZM376.707 179V170.675C376.707 168.35 375.632 167 373.207 167C371.607 167 370.282 167.825 368.807 169.125C368.407 167.75 367.357 167 365.507 167C363.982 167 362.707 167.75 361.307 168.95L361.007 167.25H360.157V179H361.332V170.125C362.782 168.8 364.132 168.075 365.382 168.075C367.082 168.075 367.857 169.05 367.857 170.825V179H369.007V170.15C370.482 168.8 371.807 168.075 373.057 168.075C374.757 168.075 375.532 169.05 375.532 170.825V179H376.707ZM388.739 179V170.5C388.739 168.25 387.439 167.025 385.039 167.025C383.489 167.025 382.139 167.45 380.814 168.05L380.964 169.15C382.264 168.475 383.639 168.1 384.989 168.1C386.614 168.1 387.589 168.9 387.589 170.55V171.575C381.939 172.1 379.939 173.5 379.939 176.125C379.939 178.25 381.514 179.25 383.489 179.25C384.964 179.25 386.414 178.5 387.639 177.425L387.914 179H388.739ZM387.589 176.35C386.314 177.475 384.789 178.225 383.539 178.225C382.214 178.225 381.139 177.525 381.139 176.025C381.139 174.1 382.739 173.075 387.589 172.55V176.35ZM395.3 177.625C395.725 177.725 396.125 177.8 396.7 177.925L397.6 178.1C400.025 178.575 400.925 179.075 400.925 180.15C400.925 181.475 399.2 182.5 396.725 182.5C394.425 182.5 392.575 181.775 392.575 180.35C392.575 179.325 393.45 178.4 395.3 177.625ZM399.6 170.95C399.6 172.675 398.425 173.975 396.5 173.975C394.6 173.975 393.425 172.625 393.425 170.95C393.425 169.2 394.6 167.925 396.45 167.925C398.325 167.925 399.6 169.275 399.6 170.95ZM399.375 168C398.6 167.35 397.575 167 396.45 167C394.25 167 392.225 168.5 392.225 170.95C392.225 172.575 393.1 173.8 394.4 174.425C393.625 174.9 393.225 175.325 393.225 175.95C393.225 176.425 393.55 176.825 394.225 177.2C392.35 178.075 391.375 179.225 391.375 180.4C391.375 182.375 393.625 183.45 396.625 183.45C399.65 183.45 402.1 182.125 402.1 180C402.1 178.35 400.775 177.6 398.075 177.075L397.175 176.9C394.95 176.475 394.425 176.25 394.425 175.725C394.425 175.425 394.7 175.15 395.375 174.775C395.725 174.85 396.125 174.9 396.5 174.9C398.775 174.9 400.775 173.4 400.775 170.95C400.775 170.05 400.5 169.25 400 168.625L402.5 168.35L402.275 167.05L399.375 168ZM413.682 172.875C413.682 169.625 412.182 167 409.182 167C406.332 167 404.182 169.375 404.182 173.125C404.182 176.95 406.257 179.25 409.357 179.25C411.032 179.25 412.582 178.5 413.657 177.525L413.482 176.425C412.332 177.475 410.832 178.225 409.407 178.225C406.782 178.225 405.382 176.125 405.382 173.125H413.682C413.682 173.025 413.682 172.95 413.682 172.875ZM412.432 172.15H405.432C405.707 169.7 406.957 167.975 409.182 167.975C411.232 167.975 412.357 169.85 412.432 172.15ZM424.541 175.9C424.541 173.925 423.166 173 420.491 172.275C418.391 171.7 417.691 171.15 417.691 170.05C417.691 168.975 418.516 168.1 420.366 168.1C421.491 168.1 422.591 168.4 423.666 168.95L423.866 167.825C422.916 167.35 421.741 167.025 420.416 167.025C418.091 167.025 416.541 168.325 416.541 170.125C416.541 171.925 417.666 172.775 420.141 173.45C422.666 174.15 423.391 174.775 423.391 176C423.391 177.375 422.241 178.15 420.491 178.15C418.941 178.15 417.516 177.625 416.416 177L416.191 178.15C417.241 178.725 418.791 179.2 420.366 179.2C422.816 179.2 424.541 178.025 424.541 175.9ZM429.231 179V176.975H427.731V179H429.231ZM457.591 179L456.191 161.75H454.741L448.316 177.525L441.916 161.75H440.441L439.041 179H440.191L441.366 163.475L447.791 179.1H448.791L455.216 163.475L456.391 179H457.591ZM471.393 173.125C471.393 169.225 469.143 167 466.193 167C463.343 167 461.018 169.225 461.018 173.125C461.018 177 463.268 179.25 466.193 179.25C469.068 179.25 471.393 177 471.393 173.125ZM470.168 173.125C470.168 176.175 468.743 178.225 466.193 178.225C463.668 178.225 462.243 176.075 462.243 173.125C462.243 170.1 463.643 168.025 466.193 168.025C468.743 168.025 470.168 170.175 470.168 173.125ZM483.757 179V170.725C483.757 168.375 482.607 167 480.182 167C478.632 167 477.332 167.775 475.907 169.025L475.607 167.25H474.757V179H475.932V170.2C477.407 168.825 478.757 168.075 480.057 168.075C481.732 168.075 482.582 169.05 482.582 170.825V179H483.757ZM503.107 173.125C503.107 169.225 500.857 167 497.907 167C495.057 167 492.732 169.225 492.732 173.125C492.732 177 494.982 179.25 497.907 179.25C500.782 179.25 503.107 177 503.107 173.125ZM501.882 173.125C501.882 176.175 500.457 178.225 497.907 178.225C495.382 178.225 493.957 176.075 493.957 173.125C493.957 170.1 495.357 168.025 497.907 168.025C500.457 168.025 501.882 170.175 501.882 173.125ZM516.146 172.8C516.146 168.85 513.946 167 511.346 167C509.696 167 508.546 167.9 507.646 168.925V161.125L506.471 161.375V178.35C507.596 178.8 508.971 179.15 510.496 179.15C513.621 179.15 516.146 177.075 516.146 172.8ZM514.921 172.85C514.921 176.475 512.996 178.125 510.646 178.125C509.371 178.125 508.396 177.875 507.646 177.575V170.225C508.821 168.9 509.921 168.075 511.321 168.075C513.421 168.075 514.921 169.75 514.921 172.85ZM521.331 163.05C521.331 162.5 520.881 162.05 520.331 162.05C519.781 162.05 519.306 162.5 519.306 163.05C519.306 163.575 519.781 164.075 520.331 164.075C520.881 164.075 521.331 163.575 521.331 163.05ZM520.906 181.075V167.25H519.756V180.95C519.756 182 519.256 182.4 518.431 182.4C518.106 182.4 517.881 182.375 517.531 182.325L517.706 183.4C517.931 183.425 518.331 183.45 518.606 183.45C519.881 183.45 520.906 182.75 520.906 181.075ZM533.921 172.875C533.921 169.625 532.421 167 529.421 167C526.571 167 524.421 169.375 524.421 173.125C524.421 176.95 526.496 179.25 529.596 179.25C531.271 179.25 532.821 178.5 533.896 177.525L533.721 176.425C532.571 177.475 531.071 178.225 529.646 178.225C527.021 178.225 525.621 176.125 525.621 173.125H533.921C533.921 173.025 533.921 172.95 533.921 172.875ZM532.671 172.15H525.671C525.946 169.7 527.196 167.975 529.421 167.975C531.471 167.975 532.596 169.85 532.671 172.15ZM545.655 177.825L545.505 176.725C544.28 177.775 543.105 178.225 541.83 178.225C539.18 178.225 537.755 176.075 537.755 173.125C537.755 170.1 539.23 168.025 541.73 168.025C543.08 168.025 544.18 168.5 545.355 169.5L545.58 168.3C544.555 167.525 543.255 167 541.78 167C538.855 167 536.53 169.225 536.53 173.125C536.53 177 538.83 179.25 541.705 179.25C543.28 179.25 544.58 178.725 545.655 177.825ZM553.827 178.95L553.652 178C553.377 178.075 552.852 178.175 552.477 178.175C551.177 178.175 550.627 177.7 550.627 176.325V168.25H553.652L553.502 167.25H550.627V162.825L549.452 163.075V167.25H547.627V168.25H549.452V176.525C549.452 178.5 550.552 179.2 552.227 179.2C552.877 179.2 553.527 179.075 553.827 178.95ZM558.758 163.05C558.758 162.5 558.308 162.05 557.758 162.05C557.208 162.05 556.733 162.5 556.733 163.05C556.733 163.575 557.208 164.075 557.758 164.075C558.308 164.075 558.758 163.575 558.758 163.05ZM558.333 179V167.25H557.183V179H558.333ZM567.273 162.25L567.098 161.125C566.873 161.1 566.698 161.1 566.323 161.1C564.373 161.1 563.298 162.15 563.298 164.175V167.25H561.473V168.25H563.298V179H564.448V168.25H567.098L566.923 167.25H564.448V164.225C564.448 162.775 565.173 162.175 566.373 162.175C566.848 162.175 567.048 162.2 567.273 162.25ZM584.312 172.875C584.312 169.625 582.812 167 579.812 167C576.962 167 574.812 169.375 574.812 173.125C574.812 176.95 576.887 179.25 579.987 179.25C581.662 179.25 583.212 178.5 584.287 177.525L584.112 176.425C582.962 177.475 581.462 178.225 580.037 178.225C577.412 178.225 576.012 176.125 576.012 173.125H584.312C584.312 173.025 584.312 172.95 584.312 172.875ZM583.062 172.15H576.062C576.337 169.7 577.587 167.975 579.812 167.975C581.862 167.975 582.987 169.85 583.062 172.15ZM583.212 161.7L581.512 161.325L578.862 165.2H579.762L583.212 161.7ZM592.621 178.95L592.446 178C592.171 178.075 591.646 178.175 591.271 178.175C589.971 178.175 589.421 177.7 589.421 176.325V168.25H592.446L592.296 167.25H589.421V162.825L588.246 163.075V167.25H586.421V168.25H588.246V176.525C588.246 178.5 589.346 179.2 591.021 179.2C591.671 179.2 592.321 179.075 592.621 178.95ZM603.827 179V170.5C603.827 168.25 602.527 167.025 600.127 167.025C598.577 167.025 597.227 167.45 595.902 168.05L596.052 169.15C597.352 168.475 598.727 168.1 600.077 168.1C601.702 168.1 602.677 168.9 602.677 170.55V171.575C597.027 172.1 595.027 173.5 595.027 176.125C595.027 178.25 596.602 179.25 598.577 179.25C600.052 179.25 601.502 178.5 602.727 177.425L603.002 179H603.827ZM602.677 176.35C601.402 177.475 599.877 178.225 598.627 178.225C597.302 178.225 596.227 177.525 596.227 176.025C596.227 174.1 597.827 173.075 602.677 172.55V176.35ZM609.588 163.05C609.588 162.5 609.138 162.05 608.588 162.05C608.038 162.05 607.563 162.5 607.563 163.05C607.563 163.575 608.038 164.075 608.588 164.075C609.138 164.075 609.588 163.575 609.588 163.05ZM609.163 179V167.25H608.013V179H609.163ZM618.378 178.95L618.203 178C617.928 178.075 617.403 178.175 617.028 178.175C615.728 178.175 615.178 177.7 615.178 176.325V168.25H618.203L618.053 167.25H615.178V162.825L614.003 163.075V167.25H612.178V168.25H614.003V176.525C614.003 178.5 615.103 179.2 616.778 179.2C617.428 179.2 618.078 179.075 618.378 178.95ZM636.32 179V161.125L635.145 161.375V167.7C634.22 167.3 633.195 167.075 631.995 167.075C629.145 167.075 626.595 169.175 626.595 173.45C626.595 177.4 628.82 179.25 631.42 179.25C633.12 179.25 634.245 178.35 635.17 177.275L635.47 179H636.32ZM635.145 176.025C633.995 177.325 632.87 178.175 631.445 178.175C629.345 178.175 627.82 176.475 627.82 173.4C627.82 169.775 629.695 168.1 632.02 168.1C633.195 168.1 634.22 168.375 635.145 168.85V176.025ZM649.204 172.875C649.204 169.625 647.704 167 644.704 167C641.854 167 639.704 169.375 639.704 173.125C639.704 176.95 641.779 179.25 644.879 179.25C646.554 179.25 648.104 178.5 649.179 177.525L649.004 176.425C647.854 177.475 646.354 178.225 644.929 178.225C642.304 178.225 640.904 176.125 640.904 173.125H649.204C649.204 173.025 649.204 172.95 649.204 172.875ZM647.954 172.15H640.954C641.229 169.7 642.479 167.975 644.704 167.975C646.754 167.975 647.879 169.85 647.954 172.15ZM674.9 179V170.675C674.9 168.35 673.825 167 671.4 167C669.8 167 668.475 167.825 667 169.125C666.6 167.75 665.55 167 663.7 167C662.175 167 660.9 167.75 659.5 168.95L659.2 167.25H658.35V179H659.525V170.125C660.975 168.8 662.325 168.075 663.575 168.075C665.275 168.075 666.05 169.05 666.05 170.825V179H667.2V170.15C668.675 168.8 670 168.075 671.25 168.075C672.95 168.075 673.725 169.05 673.725 170.825V179H674.9ZM687.632 172.875C687.632 169.625 686.132 167 683.132 167C680.282 167 678.132 169.375 678.132 173.125C678.132 176.95 680.207 179.25 683.307 179.25C684.982 179.25 686.532 178.5 687.607 177.525L687.432 176.425C686.282 177.475 684.782 178.225 683.357 178.225C680.732 178.225 679.332 176.125 679.332 173.125H687.632C687.632 173.025 687.632 172.95 687.632 172.875ZM686.382 172.15H679.382C679.657 169.7 680.907 167.975 683.132 167.975C685.182 167.975 686.307 169.85 686.382 172.15ZM695.941 178.95L695.766 178C695.491 178.075 694.966 178.175 694.591 178.175C693.291 178.175 692.741 177.7 692.741 176.325V168.25H695.766L695.616 167.25H692.741V162.825L691.566 163.075V167.25H689.741V168.25H691.566V176.525C691.566 178.5 692.666 179.2 694.341 179.2C694.991 179.2 695.641 179.075 695.941 178.95ZM704.047 178.95L703.872 178C703.597 178.075 703.072 178.175 702.697 178.175C701.397 178.175 700.847 177.7 700.847 176.325V168.25H703.872L703.722 167.25H700.847V162.825L699.672 163.075V167.25H697.847V168.25H699.672V176.525C699.672 178.5 700.772 179.2 702.447 179.2C703.097 179.2 703.747 179.075 704.047 178.95ZM712.802 168.1L712.602 167C710.652 167.025 709.277 168.375 708.377 169.7L708.002 167.25H707.227V179H708.402V171.275C709.202 169.7 710.877 168.225 712.802 168.1ZM723.814 172.875C723.814 169.625 722.314 167 719.314 167C716.464 167 714.314 169.375 714.314 173.125C714.314 176.95 716.389 179.25 719.489 179.25C721.164 179.25 722.714 178.5 723.789 177.525L723.614 176.425C722.464 177.475 720.964 178.225 719.539 178.225C716.914 178.225 715.514 176.125 715.514 173.125H723.814C723.814 173.025 723.814 172.95 723.814 172.875ZM722.564 172.15H715.564C715.839 169.7 717.089 167.975 719.314 167.975C721.364 167.975 722.489 169.85 722.564 172.15ZM741.685 172.875C741.685 169.625 740.185 167 737.185 167C734.335 167 732.185 169.375 732.185 173.125C732.185 176.95 734.26 179.25 737.36 179.25C739.035 179.25 740.585 178.5 741.66 177.525L741.485 176.425C740.335 177.475 738.835 178.225 737.41 178.225C734.785 178.225 733.385 176.125 733.385 173.125H741.685C741.685 173.025 741.685 172.95 741.685 172.875ZM740.435 172.15H733.435C733.71 169.7 734.96 167.975 737.185 167.975C739.235 167.975 740.36 169.85 740.435 172.15ZM754.069 179V170.725C754.069 168.375 752.919 167 750.494 167C748.944 167 747.644 167.775 746.219 169.025L745.919 167.25H745.069V179H746.244V170.2C747.719 168.825 749.069 168.075 750.369 168.075C752.044 168.075 752.894 169.05 752.894 170.825V179H754.069ZM771.294 175.9C771.294 173.925 769.919 173 767.244 172.275C765.144 171.7 764.444 171.15 764.444 170.05C764.444 168.975 765.269 168.1 767.119 168.1C768.244 168.1 769.344 168.4 770.419 168.95L770.619 167.825C769.669 167.35 768.494 167.025 767.169 167.025C764.844 167.025 763.294 168.325 763.294 170.125C763.294 171.925 764.419 172.775 766.894 173.45C769.419 174.15 770.144 174.775 770.144 176C770.144 177.375 768.994 178.15 767.244 178.15C765.694 178.15 764.269 177.625 763.169 177L762.944 178.15C763.994 178.725 765.544 179.2 767.119 179.2C769.569 179.2 771.294 178.025 771.294 175.9ZM783.009 177.825L782.859 176.725C781.634 177.775 780.459 178.225 779.184 178.225C776.534 178.225 775.109 176.075 775.109 173.125C775.109 170.1 776.584 168.025 779.084 168.025C780.434 168.025 781.534 168.5 782.709 169.5L782.934 168.3C781.909 167.525 780.609 167 779.134 167C776.209 167 773.884 169.225 773.884 173.125C773.884 177 776.184 179.25 779.059 179.25C780.634 179.25 781.934 178.725 783.009 177.825ZM794.981 172.875C794.981 169.625 793.481 167 790.481 167C787.631 167 785.481 169.375 785.481 173.125C785.481 176.95 787.556 179.25 790.656 179.25C792.331 179.25 793.881 178.5 794.956 177.525L794.781 176.425C793.631 177.475 792.131 178.225 790.706 178.225C788.081 178.225 786.681 176.125 786.681 173.125H794.981C794.981 173.025 794.981 172.95 794.981 172.875ZM793.731 172.15H786.731C787.006 169.7 788.256 167.975 790.481 167.975C792.531 167.975 793.656 169.85 793.731 172.15ZM791.081 165.2L788.481 161.325L786.756 161.7L790.206 165.2H791.081ZM807.365 179V170.725C807.365 168.375 806.215 167 803.79 167C802.24 167 800.94 167.775 799.515 169.025L799.215 167.25H798.365V179H799.54V170.2C801.015 168.825 802.365 168.075 803.665 168.075C805.34 168.075 806.19 169.05 806.19 170.825V179H807.365ZM820.078 172.875C820.078 169.625 818.578 167 815.578 167C812.728 167 810.578 169.375 810.578 173.125C810.578 176.95 812.653 179.25 815.753 179.25C817.428 179.25 818.978 178.5 820.053 177.525L819.878 176.425C818.728 177.475 817.228 178.225 815.803 178.225C813.178 178.225 811.778 176.125 811.778 173.125H820.078C820.078 173.025 820.078 172.95 820.078 172.875ZM818.828 172.15H811.828C812.103 169.7 813.353 167.975 815.578 167.975C817.628 167.975 818.753 169.85 818.828 172.15ZM836.699 175.9C836.699 173.925 835.324 173 832.649 172.275C830.549 171.7 829.849 171.15 829.849 170.05C829.849 168.975 830.674 168.1 832.524 168.1C833.649 168.1 834.749 168.4 835.824 168.95L836.024 167.825C835.074 167.35 833.899 167.025 832.574 167.025C830.249 167.025 828.699 168.325 828.699 170.125C828.699 171.925 829.824 172.775 832.299 173.45C834.824 174.15 835.549 174.775 835.549 176C835.549 177.375 834.399 178.15 832.649 178.15C831.099 178.15 829.674 177.625 828.574 177L828.349 178.15C829.399 178.725 830.949 179.2 832.524 179.2C834.974 179.2 836.699 178.025 836.699 175.9ZM848.789 172.875C848.789 169.625 847.289 167 844.289 167C841.439 167 839.289 169.375 839.289 173.125C839.289 176.95 841.364 179.25 844.464 179.25C846.139 179.25 847.689 178.5 848.764 177.525L848.589 176.425C847.439 177.475 845.939 178.225 844.514 178.225C841.889 178.225 840.489 176.125 840.489 173.125H848.789C848.789 173.025 848.789 172.95 848.789 172.875ZM847.539 172.15H840.539C840.814 169.7 842.064 167.975 844.289 167.975C846.339 167.975 847.464 169.85 847.539 172.15ZM859.649 175.9C859.649 173.925 858.274 173 855.599 172.275C853.499 171.7 852.799 171.15 852.799 170.05C852.799 168.975 853.624 168.1 855.474 168.1C856.599 168.1 857.699 168.4 858.774 168.95L858.974 167.825C858.024 167.35 856.849 167.025 855.524 167.025C853.199 167.025 851.649 168.325 851.649 170.125C851.649 171.925 852.774 172.775 855.249 173.45C857.774 174.15 858.499 174.775 858.499 176C858.499 177.375 857.349 178.15 855.599 178.15C854.049 178.15 852.624 177.625 851.524 177L851.299 178.15C852.349 178.725 853.899 179.2 855.474 179.2C857.924 179.2 859.649 178.025 859.649 175.9ZM877.5 172.875C877.5 169.625 876 167 873 167C870.15 167 868 169.375 868 173.125C868 176.95 870.075 179.25 873.175 179.25C874.85 179.25 876.4 178.5 877.475 177.525L877.3 176.425C876.15 177.475 874.65 178.225 873.225 178.225C870.6 178.225 869.2 176.125 869.2 173.125H877.5C877.5 173.025 877.5 172.95 877.5 172.875ZM876.25 172.15H869.25C869.525 169.7 870.775 167.975 873 167.975C875.05 167.975 876.175 169.85 876.25 172.15ZM876.4 161.7L874.7 161.325L872.05 165.2H872.95L876.4 161.7ZM882.21 179V161.125L881.06 161.375V179H882.21ZM895.249 172.875C895.249 169.625 893.749 167 890.749 167C887.899 167 885.749 169.375 885.749 173.125C885.749 176.95 887.824 179.25 890.924 179.25C892.599 179.25 894.149 178.5 895.224 177.525L895.049 176.425C893.899 177.475 892.399 178.225 890.974 178.225C888.349 178.225 886.949 176.125 886.949 173.125H895.249C895.249 173.025 895.249 172.95 895.249 172.875ZM893.999 172.15H886.999C887.274 169.7 888.524 167.975 890.749 167.975C892.799 167.975 893.924 169.85 893.999 172.15ZM894.149 161.7L892.449 161.325L889.799 165.2H890.699L894.149 161.7ZM915.184 179V170.675C915.184 168.35 914.109 167 911.684 167C910.084 167 908.759 167.825 907.284 169.125C906.884 167.75 905.834 167 903.984 167C902.459 167 901.184 167.75 899.784 168.95L899.484 167.25H898.634V179H899.809V170.125C901.259 168.8 902.609 168.075 903.859 168.075C905.559 168.075 906.334 169.05 906.334 170.825V179H907.484V170.15C908.959 168.8 910.284 168.075 911.534 168.075C913.234 168.075 914.009 169.05 914.009 170.825V179H915.184ZM927.915 172.875C927.915 169.625 926.415 167 923.415 167C920.565 167 918.415 169.375 918.415 173.125C918.415 176.95 920.49 179.25 923.59 179.25C925.265 179.25 926.815 178.5 927.89 177.525L927.715 176.425C926.565 177.475 925.065 178.225 923.64 178.225C921.015 178.225 919.615 176.125 919.615 173.125H927.915C927.915 173.025 927.915 172.95 927.915 172.875ZM926.665 172.15H919.665C919.94 169.7 921.19 167.975 923.415 167.975C925.465 167.975 926.59 169.85 926.665 172.15ZM940.3 179V170.725C940.3 168.375 939.15 167 936.725 167C935.175 167 933.875 167.775 932.45 169.025L932.15 167.25H931.3V179H932.475V170.2C933.95 168.825 935.3 168.075 936.6 168.075C938.275 168.075 939.125 169.05 939.125 170.825V179H940.3ZM949.213 178.95L949.038 178C948.763 178.075 948.238 178.175 947.863 178.175C946.563 178.175 946.013 177.7 946.013 176.325V168.25H949.038L948.888 167.25H946.013V162.825L944.838 163.075V167.25H943.013V168.25H944.838V176.525C944.838 178.5 945.938 179.2 947.613 179.2C948.263 179.2 948.913 179.075 949.213 178.95ZM959.868 175.9C959.868 173.925 958.493 173 955.818 172.275C953.718 171.7 953.018 171.15 953.018 170.05C953.018 168.975 953.843 168.1 955.693 168.1C956.818 168.1 957.918 168.4 958.993 168.95L959.193 167.825C958.243 167.35 957.068 167.025 955.743 167.025C953.418 167.025 951.868 168.325 951.868 170.125C951.868 171.925 952.993 172.775 955.468 173.45C957.993 174.15 958.718 174.775 958.718 176C958.718 177.375 957.568 178.15 955.818 178.15C954.268 178.15 952.843 177.625 951.743 177L951.518 178.15C952.568 178.725 954.118 179.2 955.693 179.2C958.143 179.2 959.868 178.025 959.868 175.9ZM977.995 179V161.125L976.82 161.375V167.7C975.895 167.3 974.87 167.075 973.67 167.075C970.82 167.075 968.27 169.175 968.27 173.45C968.27 177.4 970.495 179.25 973.095 179.25C974.795 179.25 975.92 178.35 976.845 177.275L977.145 179H977.995ZM976.82 176.025C975.67 177.325 974.545 178.175 973.12 178.175C971.02 178.175 969.495 176.475 969.495 173.4C969.495 169.775 971.37 168.1 973.695 168.1C974.87 168.1 975.895 168.375 976.82 168.85V176.025ZM990.879 172.875C990.879 169.625 989.379 167 986.379 167C983.529 167 981.379 169.375 981.379 173.125C981.379 176.95 983.454 179.25 986.554 179.25C988.229 179.25 989.779 178.5 990.854 177.525L990.679 176.425C989.529 177.475 988.029 178.225 986.604 178.225C983.979 178.225 982.579 176.125 982.579 173.125H990.879C990.879 173.025 990.879 172.95 990.879 172.875ZM989.629 172.15H982.629C982.904 169.7 984.154 167.975 986.379 167.975C988.429 167.975 989.554 169.85 989.629 172.15ZM1016.58 179V170.675C1016.58 168.35 1015.5 167 1013.08 167C1011.48 167 1010.15 167.825 1008.68 169.125C1008.28 167.75 1007.23 167 1005.38 167C1003.85 167 1002.58 167.75 1001.18 168.95L1000.88 167.25H1000.03V179H1001.2V170.125C1002.65 168.8 1004 168.075 1005.25 168.075C1006.95 168.075 1007.73 169.05 1007.73 170.825V179H1008.88V170.15C1010.35 168.8 1011.68 168.075 1012.93 168.075C1014.63 168.075 1015.4 169.05 1015.4 170.825V179H1016.58ZM1028.61 179V170.5C1028.61 168.25 1027.31 167.025 1024.91 167.025C1023.36 167.025 1022.01 167.45 1020.68 168.05L1020.83 169.15C1022.13 168.475 1023.51 168.1 1024.86 168.1C1026.48 168.1 1027.46 168.9 1027.46 170.55V171.575C1021.81 172.1 1019.81 173.5 1019.81 176.125C1019.81 178.25 1021.38 179.25 1023.36 179.25C1024.83 179.25 1026.28 178.5 1027.51 177.425L1027.78 179H1028.61ZM1027.46 176.35C1026.18 177.475 1024.66 178.225 1023.41 178.225C1022.08 178.225 1021.01 177.525 1021.01 176.025C1021.01 174.1 1022.61 173.075 1027.46 172.55V176.35ZM1041.62 179V170.725C1041.62 168.375 1040.47 167 1038.04 167C1036.49 167 1035.19 167.775 1033.77 169.025L1033.47 167.25H1032.62V179H1033.79V170.2C1035.27 168.825 1036.62 168.075 1037.92 168.075C1039.59 168.075 1040.44 169.05 1040.44 170.825V179H1041.62ZM1047.36 163.05C1047.36 162.5 1046.91 162.05 1046.36 162.05C1045.81 162.05 1045.33 162.5 1045.33 163.05C1045.33 163.575 1045.81 164.075 1046.36 164.075C1046.91 164.075 1047.36 163.575 1047.36 163.05ZM1046.93 179V167.25H1045.78V179H1046.93ZM1059.95 172.875C1059.95 169.625 1058.45 167 1055.45 167C1052.6 167 1050.45 169.375 1050.45 173.125C1050.45 176.95 1052.52 179.25 1055.62 179.25C1057.3 179.25 1058.85 178.5 1059.92 177.525L1059.75 176.425C1058.6 177.475 1057.1 178.225 1055.67 178.225C1053.05 178.225 1051.65 176.125 1051.65 173.125H1059.95C1059.95 173.025 1059.95 172.95 1059.95 172.875ZM1058.7 172.15H1051.7C1051.97 169.7 1053.22 167.975 1055.45 167.975C1057.5 167.975 1058.62 169.85 1058.7 172.15ZM1056.05 165.2L1053.45 161.325L1051.72 161.7L1055.17 165.2H1056.05ZM1068.91 168.1L1068.71 167C1066.76 167.025 1065.38 168.375 1064.48 169.7L1064.11 167.25H1063.33V179H1064.51V171.275C1065.31 169.7 1066.98 168.225 1068.91 168.1ZM1079.92 172.875C1079.92 169.625 1078.42 167 1075.42 167C1072.57 167 1070.42 169.375 1070.42 173.125C1070.42 176.95 1072.49 179.25 1075.59 179.25C1077.27 179.25 1078.82 178.5 1079.89 177.525L1079.72 176.425C1078.57 177.475 1077.07 178.225 1075.64 178.225C1073.02 178.225 1071.62 176.125 1071.62 173.125H1079.92C1079.92 173.025 1079.92 172.95 1079.92 172.875ZM1078.67 172.15H1071.67C1071.94 169.7 1073.19 167.975 1075.42 167.975C1077.47 167.975 1078.59 169.85 1078.67 172.15ZM1098.06 179V161.125L1096.89 161.375V167.7C1095.96 167.3 1094.94 167.075 1093.74 167.075C1090.89 167.075 1088.34 169.175 1088.34 173.45C1088.34 177.4 1090.56 179.25 1093.16 179.25C1094.86 179.25 1095.99 178.35 1096.91 177.275L1097.21 179H1098.06ZM1096.89 176.025C1095.74 177.325 1094.61 178.175 1093.19 178.175C1091.09 178.175 1089.56 176.475 1089.56 173.4C1089.56 169.775 1091.44 168.1 1093.76 168.1C1094.94 168.1 1095.96 168.375 1096.89 168.85V176.025ZM1103.97 163.05C1103.97 162.5 1103.52 162.05 1102.97 162.05C1102.42 162.05 1101.95 162.5 1101.95 163.05C1101.95 163.575 1102.42 164.075 1102.97 164.075C1103.52 164.075 1103.97 163.575 1103.97 163.05ZM1103.55 179V167.25H1102.4V179H1103.55ZM1112.49 162.25L1112.31 161.125C1112.09 161.1 1111.91 161.1 1111.54 161.1C1109.59 161.1 1108.51 162.15 1108.51 164.175V167.25H1106.69V168.25H1108.51V179H1109.66V168.25H1112.31L1112.14 167.25H1109.66V164.225C1109.66 162.775 1110.39 162.175 1111.59 162.175C1112.06 162.175 1112.26 162.2 1112.49 162.25ZM1119.69 162.25L1119.51 161.125C1119.29 161.1 1119.11 161.1 1118.74 161.1C1116.79 161.1 1115.71 162.15 1115.71 164.175V167.25H1113.89V168.25H1115.71V179H1116.86V168.25H1119.51L1119.34 167.25H1116.86V164.225C1116.86 162.775 1117.59 162.175 1118.79 162.175C1119.26 162.175 1119.46 162.2 1119.69 162.25ZM1130.97 172.875C1130.97 169.625 1129.47 167 1126.47 167C1123.62 167 1121.47 169.375 1121.47 173.125C1121.47 176.95 1123.54 179.25 1126.64 179.25C1128.32 179.25 1129.87 178.5 1130.94 177.525L1130.77 176.425C1129.62 177.475 1128.12 178.225 1126.69 178.225C1124.07 178.225 1122.67 176.125 1122.67 173.125H1130.97C1130.97 173.025 1130.97 172.95 1130.97 172.875ZM1129.72 172.15H1122.72C1122.99 169.7 1124.24 167.975 1126.47 167.975C1128.52 167.975 1129.64 169.85 1129.72 172.15ZM1129.87 161.7L1128.17 161.325L1125.52 165.2H1126.42L1129.87 161.7ZM1139.93 168.1L1139.73 167C1137.78 167.025 1136.4 168.375 1135.5 169.7L1135.13 167.25H1134.35V179H1135.53V171.275C1136.33 169.7 1138 168.225 1139.93 168.1ZM1150.94 172.875C1150.94 169.625 1149.44 167 1146.44 167C1143.59 167 1141.44 169.375 1141.44 173.125C1141.44 176.95 1143.51 179.25 1146.61 179.25C1148.29 179.25 1149.84 178.5 1150.91 177.525L1150.74 176.425C1149.59 177.475 1148.09 178.225 1146.66 178.225C1144.04 178.225 1142.64 176.125 1142.64 173.125H1150.94C1150.94 173.025 1150.94 172.95 1150.94 172.875ZM1149.69 172.15H1142.69C1142.96 169.7 1144.21 167.975 1146.44 167.975C1148.49 167.975 1149.61 169.85 1149.69 172.15ZM1163.32 179V170.725C1163.32 168.375 1162.17 167 1159.75 167C1158.2 167 1156.9 167.775 1155.47 169.025L1155.17 167.25H1154.32V179H1155.5V170.2C1156.97 168.825 1158.32 168.075 1159.62 168.075C1161.3 168.075 1162.15 169.05 1162.15 170.825V179H1163.32ZM1172.24 178.95L1172.06 178C1171.79 178.075 1171.26 178.175 1170.89 178.175C1169.59 178.175 1169.04 177.7 1169.04 176.325V168.25H1172.06L1171.91 167.25H1169.04V162.825L1167.86 163.075V167.25H1166.04V168.25H1167.86V176.525C1167.86 178.5 1168.96 179.2 1170.64 179.2C1171.29 179.2 1171.94 179.075 1172.24 178.95ZM1184.04 172.875C1184.04 169.625 1182.54 167 1179.54 167C1176.69 167 1174.54 169.375 1174.54 173.125C1174.54 176.95 1176.62 179.25 1179.72 179.25C1181.39 179.25 1182.94 178.5 1184.02 177.525L1183.84 176.425C1182.69 177.475 1181.19 178.225 1179.77 178.225C1177.14 178.225 1175.74 176.125 1175.74 173.125H1184.04C1184.04 173.025 1184.04 172.95 1184.04 172.875ZM1182.79 172.15H1175.79C1176.07 169.7 1177.32 167.975 1179.54 167.975C1181.59 167.975 1182.72 169.85 1182.79 172.15ZM1202.91 172.8C1202.91 168.85 1200.69 167 1198.09 167C1196.39 167 1195.29 167.875 1194.34 168.95L1194.04 167.25H1193.19V183.525L1194.36 183.275V178.55C1195.29 178.925 1196.34 179.15 1197.51 179.15C1200.36 179.15 1202.91 177.075 1202.91 172.8ZM1201.69 172.85C1201.69 176.45 1199.84 178.125 1197.49 178.125C1196.31 178.125 1195.29 177.85 1194.36 177.4V170.225C1195.54 168.9 1196.64 168.075 1198.06 168.075C1200.16 168.075 1201.69 169.75 1201.69 172.85ZM1215.95 173.125C1215.95 169.225 1213.7 167 1210.75 167C1207.9 167 1205.57 169.225 1205.57 173.125C1205.57 177 1207.82 179.25 1210.75 179.25C1213.62 179.25 1215.95 177 1215.95 173.125ZM1214.72 173.125C1214.72 176.175 1213.3 178.225 1210.75 178.225C1208.22 178.225 1206.8 176.075 1206.8 173.125C1206.8 170.1 1208.2 168.025 1210.75 168.025C1213.3 168.025 1214.72 170.175 1214.72 173.125ZM1228.16 179V167.25H1226.99V176.05C1225.51 177.425 1224.16 178.175 1222.86 178.175C1221.19 178.175 1220.34 177.2 1220.34 175.425V167.25H1219.16V175.525C1219.16 177.875 1220.31 179.25 1222.74 179.25C1224.29 179.25 1225.59 178.475 1227.01 177.225L1227.31 179H1228.16ZM1237.88 168.1L1237.68 167C1235.73 167.025 1234.35 168.375 1233.45 169.7L1233.08 167.25H1232.3V179H1233.48V171.275C1234.28 169.7 1235.95 168.225 1237.88 168.1ZM1254.71 177.825L1254.56 176.725C1253.34 177.775 1252.16 178.225 1250.89 178.225C1248.24 178.225 1246.81 176.075 1246.81 173.125C1246.81 170.1 1248.29 168.025 1250.79 168.025C1252.14 168.025 1253.24 168.5 1254.41 169.5L1254.64 168.3C1253.61 167.525 1252.31 167 1250.84 167C1247.91 167 1245.59 169.225 1245.59 173.125C1245.59 177 1247.89 179.25 1250.76 179.25C1252.34 179.25 1253.64 178.725 1254.71 177.825ZM1266.96 179V170.675C1266.96 168.35 1265.81 167 1263.38 167C1261.83 167 1260.56 167.775 1259.13 169V161.125L1257.96 161.375V179H1259.13V170.2C1260.61 168.825 1261.96 168.075 1263.26 168.075C1264.93 168.075 1265.78 169.05 1265.78 170.825V179H1266.96ZM1278.97 179V170.5C1278.97 168.25 1277.67 167.025 1275.27 167.025C1273.72 167.025 1272.37 167.45 1271.05 168.05L1271.2 169.15C1272.5 168.475 1273.87 168.1 1275.22 168.1C1276.85 168.1 1277.82 168.9 1277.82 170.55V171.575C1272.17 172.1 1270.17 173.5 1270.17 176.125C1270.17 178.25 1271.75 179.25 1273.72 179.25C1275.2 179.25 1276.65 178.5 1277.87 177.425L1278.15 179H1278.97ZM1277.82 176.35C1276.55 177.475 1275.02 178.225 1273.77 178.225C1272.45 178.225 1271.37 177.525 1271.37 176.025C1271.37 174.1 1272.97 173.075 1277.82 172.55V176.35ZM1291.93 183.275V167.875C1290.81 167.45 1289.43 167.075 1287.91 167.075C1284.81 167.075 1282.26 169.175 1282.26 173.45C1282.26 177.4 1284.48 179.25 1287.06 179.25C1288.71 179.25 1289.88 178.325 1290.76 177.3V183.525L1291.93 183.275ZM1290.76 176.025C1289.61 177.325 1288.48 178.175 1287.08 178.175C1285.01 178.175 1283.48 176.475 1283.48 173.4C1283.48 169.75 1285.41 168.1 1287.76 168.1C1289.03 168.1 1290.01 168.375 1290.76 168.65V176.025ZM1304.94 179V167.25H1303.77V176.05C1302.29 177.425 1300.94 178.175 1299.64 178.175C1297.97 178.175 1297.12 177.2 1297.12 175.425V167.25H1295.94V175.525C1295.94 177.875 1297.09 179.25 1299.52 179.25C1301.07 179.25 1302.37 178.475 1303.79 177.225L1304.09 179H1304.94ZM1317.81 172.875C1317.81 169.625 1316.31 167 1313.31 167C1310.46 167 1308.31 169.375 1308.31 173.125C1308.31 176.95 1310.38 179.25 1313.48 179.25C1315.16 179.25 1316.71 178.5 1317.78 177.525L1317.61 176.425C1316.46 177.475 1314.96 178.225 1313.53 178.225C1310.91 178.225 1309.51 176.125 1309.51 173.125H1317.81C1317.81 173.025 1317.81 172.95 1317.81 172.875ZM1316.56 172.15H1309.56C1309.83 169.7 1311.08 167.975 1313.31 167.975C1315.36 167.975 1316.48 169.85 1316.56 172.15ZM1336.68 172.8C1336.68 168.85 1334.45 167 1331.85 167C1330.15 167 1329.05 167.875 1328.1 168.95L1327.8 167.25H1326.95V183.525L1328.13 183.275V178.55C1329.05 178.925 1330.1 179.15 1331.28 179.15C1334.13 179.15 1336.68 177.075 1336.68 172.8ZM1335.45 172.85C1335.45 176.45 1333.6 178.125 1331.25 178.125C1330.08 178.125 1329.05 177.85 1328.13 177.4V170.225C1329.3 168.9 1330.4 168.075 1331.83 168.075C1333.93 168.075 1335.45 169.75 1335.45 172.85ZM1349.11 179V170.675C1349.11 168.35 1347.96 167 1345.54 167C1343.99 167 1342.71 167.775 1341.29 169V161.125L1340.11 161.375V179H1341.29V170.2C1342.76 168.825 1344.11 168.075 1345.41 168.075C1347.09 168.075 1347.94 169.05 1347.94 170.825V179H1349.11ZM1358.68 168.1L1358.48 167C1356.53 167.025 1355.15 168.375 1354.25 169.7L1353.88 167.25H1353.1V179H1354.28V171.275C1355.08 169.7 1356.75 168.225 1358.68 168.1ZM1368.99 179V170.5C1368.99 168.25 1367.69 167.025 1365.29 167.025C1363.74 167.025 1362.39 167.45 1361.06 168.05L1361.21 169.15C1362.51 168.475 1363.89 168.1 1365.24 168.1C1366.86 168.1 1367.84 168.9 1367.84 170.55V171.575C1362.19 172.1 1360.19 173.5 1360.19 176.125C1360.19 178.25 1361.76 179.25 1363.74 179.25C1365.21 179.25 1366.66 178.5 1367.89 177.425L1368.16 179H1368.99ZM1367.84 176.35C1366.56 177.475 1365.04 178.225 1363.79 178.225C1362.46 178.225 1361.39 177.525 1361.39 176.025C1361.39 174.1 1362.99 173.075 1367.84 172.55V176.35ZM1380.47 175.9C1380.47 173.925 1379.1 173 1376.42 172.275C1374.32 171.7 1373.62 171.15 1373.62 170.05C1373.62 168.975 1374.45 168.1 1376.3 168.1C1377.42 168.1 1378.52 168.4 1379.6 168.95L1379.8 167.825C1378.85 167.35 1377.67 167.025 1376.35 167.025C1374.02 167.025 1372.47 168.325 1372.47 170.125C1372.47 171.925 1373.6 172.775 1376.07 173.45C1378.6 174.15 1379.32 174.775 1379.32 176C1379.32 177.375 1378.17 178.15 1376.42 178.15C1374.87 178.15 1373.45 177.625 1372.35 177L1372.12 178.15C1373.17 178.725 1374.72 179.2 1376.3 179.2C1378.75 179.2 1380.47 178.025 1380.47 175.9ZM1392.56 172.875C1392.56 169.625 1391.06 167 1388.06 167C1385.21 167 1383.06 169.375 1383.06 173.125C1383.06 176.95 1385.14 179.25 1388.24 179.25C1389.91 179.25 1391.46 178.5 1392.54 177.525L1392.36 176.425C1391.21 177.475 1389.71 178.225 1388.29 178.225C1385.66 178.225 1384.26 176.125 1384.26 173.125H1392.56C1392.56 173.025 1392.56 172.95 1392.56 172.875ZM1391.31 172.15H1384.31C1384.59 169.7 1385.84 167.975 1388.06 167.975C1390.11 167.975 1391.24 169.85 1391.31 172.15ZM1410.66 183.275V167.875C1409.53 167.45 1408.16 167.075 1406.63 167.075C1403.53 167.075 1400.98 169.175 1400.98 173.45C1400.98 177.4 1403.21 179.25 1405.78 179.25C1407.43 179.25 1408.61 178.325 1409.48 177.3V183.525L1410.66 183.275ZM1409.48 176.025C1408.33 177.325 1407.21 178.175 1405.81 178.175C1403.73 178.175 1402.21 176.475 1402.21 173.4C1402.21 169.75 1404.13 168.1 1406.48 168.1C1407.76 168.1 1408.73 168.375 1409.48 168.65V176.025ZM1423.67 179V167.25H1422.5V176.05C1421.02 177.425 1419.67 178.175 1418.37 178.175C1416.7 178.175 1415.85 177.2 1415.85 175.425V167.25H1414.67V175.525C1414.67 177.875 1415.82 179.25 1418.25 179.25C1419.8 179.25 1421.1 178.475 1422.52 177.225L1422.82 179H1423.67ZM1429.56 163.05C1429.56 162.5 1429.11 162.05 1428.56 162.05C1428.01 162.05 1427.53 162.5 1427.53 163.05C1427.53 163.575 1428.01 164.075 1428.56 164.075C1429.11 164.075 1429.56 163.575 1429.56 163.05ZM1429.13 179V167.25H1427.98V179H1429.13ZM1446.66 175.9C1446.66 173.925 1445.29 173 1442.61 172.275C1440.51 171.7 1439.81 171.15 1439.81 170.05C1439.81 168.975 1440.64 168.1 1442.49 168.1C1443.61 168.1 1444.71 168.4 1445.79 168.95L1445.99 167.825C1445.04 167.35 1443.86 167.025 1442.54 167.025C1440.21 167.025 1438.66 168.325 1438.66 170.125C1438.66 171.925 1439.79 172.775 1442.26 173.45C1444.79 174.15 1445.51 174.775 1445.51 176C1445.51 177.375 1444.36 178.15 1442.61 178.15C1441.06 178.15 1439.64 177.625 1438.54 177L1438.31 178.15C1439.36 178.725 1440.91 179.2 1442.49 179.2C1444.94 179.2 1446.66 178.025 1446.66 175.9ZM1451.8 161.75H1450.28L1449.3 166.95L1449.95 167.1L1451.8 161.75ZM1462.71 179V170.5C1462.71 168.25 1461.41 167.025 1459.01 167.025C1457.46 167.025 1456.11 167.45 1454.79 168.05L1454.94 169.15C1456.24 168.475 1457.61 168.1 1458.96 168.1C1460.59 168.1 1461.56 168.9 1461.56 170.55V171.575C1455.91 172.1 1453.91 173.5 1453.91 176.125C1453.91 178.25 1455.49 179.25 1457.46 179.25C1458.94 179.25 1460.39 178.5 1461.61 177.425L1461.89 179H1462.71ZM1461.56 176.35C1460.29 177.475 1458.76 178.225 1457.51 178.225C1456.19 178.225 1455.11 177.525 1455.11 176.025C1455.11 174.1 1456.71 173.075 1461.56 172.55V176.35ZM1471.37 162.25L1471.2 161.125C1470.97 161.1 1470.8 161.1 1470.42 161.1C1468.47 161.1 1467.4 162.15 1467.4 164.175V167.25H1465.57V168.25H1467.4V179H1468.55V168.25H1471.2L1471.02 167.25H1468.55V164.225C1468.55 162.775 1469.27 162.175 1470.47 162.175C1470.95 162.175 1471.15 162.2 1471.37 162.25ZM1478.58 162.25L1478.4 161.125C1478.18 161.1 1478 161.1 1477.63 161.1C1475.68 161.1 1474.6 162.15 1474.6 164.175V167.25H1472.78V168.25H1474.6V179H1475.75V168.25H1478.4L1478.23 167.25H1475.75V164.225C1475.75 162.775 1476.48 162.175 1477.68 162.175C1478.15 162.175 1478.35 162.2 1478.58 162.25ZM1482.88 163.05C1482.88 162.5 1482.43 162.05 1481.88 162.05C1481.33 162.05 1480.85 162.5 1480.85 163.05C1480.85 163.575 1481.33 164.075 1481.88 164.075C1482.43 164.075 1482.88 163.575 1482.88 163.05ZM1482.45 179V167.25H1481.3V179H1482.45ZM1495.09 177.825L1494.94 176.725C1493.72 177.775 1492.54 178.225 1491.27 178.225C1488.62 178.225 1487.19 176.075 1487.19 173.125C1487.19 170.1 1488.67 168.025 1491.17 168.025C1492.52 168.025 1493.62 168.5 1494.79 169.5L1495.02 168.3C1493.99 167.525 1492.69 167 1491.22 167C1488.29 167 1485.97 169.225 1485.97 173.125C1485.97 177 1488.27 179.25 1491.14 179.25C1492.72 179.25 1494.02 178.725 1495.09 177.825ZM1507.34 179V170.675C1507.34 168.35 1506.19 167 1503.77 167C1502.22 167 1500.94 167.775 1499.52 169V161.125L1498.34 161.375V179H1499.52V170.2C1500.99 168.825 1502.34 168.075 1503.64 168.075C1505.32 168.075 1506.17 169.05 1506.17 170.825V179H1507.34ZM1520.05 172.875C1520.05 169.625 1518.55 167 1515.55 167C1512.7 167 1510.55 169.375 1510.55 173.125C1510.55 176.95 1512.63 179.25 1515.73 179.25C1517.4 179.25 1518.95 178.5 1520.03 177.525L1519.85 176.425C1518.7 177.475 1517.2 178.225 1515.78 178.225C1513.15 178.225 1511.75 176.125 1511.75 173.125H1520.05C1520.05 173.025 1520.05 172.95 1520.05 172.875ZM1518.8 172.15H1511.8C1512.08 169.7 1513.33 167.975 1515.55 167.975C1517.6 167.975 1518.73 169.85 1518.8 172.15ZM1524.76 179V176.975H1523.26V179H1524.76Z" fill="black"/>
</svg>
