<svg width="225" height="53" viewBox="0 0 225 53" fill="none" xmlns="http://www.w3.org/2000/svg">
<path d="M2.88 12.36H12.56C14.8267 12.36 16.8667 12.7067 18.68 13.4C20.4933 14.0933 22.04 15.08 23.32 16.36C24.6 17.6133 25.5733 19.12 26.24 20.88C26.9333 22.64 27.28 24.5733 27.28 26.68C27.28 28.8133 26.9333 30.76 26.24 32.52C25.5733 34.28 24.6 35.7867 23.32 37.04C22.04 38.2933 20.4933 39.2667 18.68 39.96C16.8667 40.6533 14.8267 41 12.56 41H2.88V12.36ZM12.32 35.88C13.8933 35.88 15.28 35.6667 16.48 35.24C17.68 34.7867 18.68 34.16 19.48 33.36C20.28 32.56 20.88 31.6 21.28 30.48C21.68 29.3333 21.88 28.0667 21.88 26.68C21.88 25.2933 21.68 24.04 21.28 22.92C20.88 21.7733 20.28 20.8 19.48 20C18.68 19.2 17.68 18.5867 16.48 18.16C15.28 17.7067 13.8933 17.48 12.32 17.48H8.28V35.88H12.32ZM39.6841 20.76C41.2041 20.76 42.5907 21.0267 43.8441 21.56C45.1241 22.0667 46.2174 22.7867 47.1241 23.72C48.0574 24.6267 48.7774 25.72 49.2841 27C49.8174 28.28 50.0841 29.68 50.0841 31.2C50.0841 32.72 49.8174 34.12 49.2841 35.4C48.7774 36.68 48.0574 37.7867 47.1241 38.72C46.2174 39.6267 45.1241 40.3467 43.8441 40.88C42.5907 41.3867 41.2041 41.64 39.6841 41.64C38.1641 41.64 36.7641 41.3867 35.4841 40.88C34.2307 40.3467 33.1374 39.6267 32.2041 38.72C31.2974 37.7867 30.5774 36.68 30.0441 35.4C29.5374 34.12 29.2841 32.72 29.2841 31.2C29.2841 29.68 29.5374 28.28 30.0441 27C30.5774 25.72 31.2974 24.6267 32.2041 23.72C33.1374 22.7867 34.2307 22.0667 35.4841 21.56C36.7641 21.0267 38.1641 20.76 39.6841 20.76ZM39.6841 36.8C40.3507 36.8 40.9907 36.68 41.6041 36.44C42.2441 36.1733 42.8041 35.8 43.2841 35.32C43.7641 34.84 44.1374 34.2533 44.4041 33.56C44.6974 32.8667 44.8441 32.08 44.8441 31.2C44.8441 30.32 44.6974 29.5333 44.4041 28.84C44.1374 28.1467 43.7641 27.56 43.2841 27.08C42.8041 26.6 42.2441 26.24 41.6041 26C40.9907 25.7333 40.3507 25.6 39.6841 25.6C38.9907 25.6 38.3374 25.7333 37.7241 26C37.1107 26.24 36.5641 26.6 36.0841 27.08C35.6041 27.56 35.2174 28.1467 34.9241 28.84C34.6574 29.5333 34.5241 30.32 34.5241 31.2C34.5241 32.08 34.6574 32.8667 34.9241 33.56C35.2174 34.2533 35.6041 34.84 36.0841 35.32C36.5641 35.8 37.1107 36.1733 37.7241 36.44C38.3374 36.68 38.9907 36.8 39.6841 36.8ZM62.7309 20.76C64.2509 20.76 65.6376 21.0267 66.8909 21.56C68.1709 22.0667 69.2643 22.7867 70.1709 23.72C71.1043 24.6267 71.8243 25.72 72.3309 27C72.8643 28.28 73.1309 29.68 73.1309 31.2C73.1309 32.72 72.8643 34.12 72.3309 35.4C71.8243 36.68 71.1043 37.7867 70.1709 38.72C69.2643 39.6267 68.1709 40.3467 66.8909 40.88C65.6376 41.3867 64.2509 41.64 62.7309 41.64C61.2109 41.64 59.8109 41.3867 58.5309 40.88C57.2776 40.3467 56.1843 39.6267 55.2509 38.72C54.3443 37.7867 53.6243 36.68 53.0909 35.4C52.5843 34.12 52.3309 32.72 52.3309 31.2C52.3309 29.68 52.5843 28.28 53.0909 27C53.6243 25.72 54.3443 24.6267 55.2509 23.72C56.1843 22.7867 57.2776 22.0667 58.5309 21.56C59.8109 21.0267 61.2109 20.76 62.7309 20.76ZM62.7309 36.8C63.3976 36.8 64.0376 36.68 64.6509 36.44C65.2909 36.1733 65.8509 35.8 66.3309 35.32C66.8109 34.84 67.1843 34.2533 67.4509 33.56C67.7443 32.8667 67.8909 32.08 67.8909 31.2C67.8909 30.32 67.7443 29.5333 67.4509 28.84C67.1843 28.1467 66.8109 27.56 66.3309 27.08C65.8509 26.6 65.2909 26.24 64.6509 26C64.0376 25.7333 63.3976 25.6 62.7309 25.6C62.0376 25.6 61.3843 25.7333 60.7709 26C60.1576 26.24 59.6109 26.6 59.1309 27.08C58.6509 27.56 58.2643 28.1467 57.9709 28.84C57.7043 29.5333 57.5709 30.32 57.5709 31.2C57.5709 32.08 57.7043 32.8667 57.9709 33.56C58.2643 34.2533 58.6509 34.84 59.1309 35.32C59.6109 35.8 60.1576 36.1733 60.7709 36.44C61.3843 36.68 62.0376 36.8 62.7309 36.8ZM91.0978 38.64H90.7778C90.2978 39.4667 89.5511 40.1733 88.5378 40.76C87.5245 41.3467 86.2711 41.64 84.7778 41.64C83.5245 41.64 82.3245 41.3867 81.1778 40.88C80.0578 40.3467 79.0578 39.6267 78.1778 38.72C77.3245 37.7867 76.6445 36.68 76.1378 35.4C75.6311 34.12 75.3778 32.72 75.3778 31.2C75.3778 29.68 75.6311 28.28 76.1378 27C76.6445 25.72 77.3245 24.6267 78.1778 23.72C79.0578 22.7867 80.0578 22.0667 81.1778 21.56C82.3245 21.0267 83.5245 20.76 84.7778 20.76C86.2711 20.76 87.5245 21.0533 88.5378 21.64C89.5511 22.2267 90.2978 22.9333 90.7778 23.76H91.0978L90.7778 20.96V12.36H96.0178V41H91.0978V38.64ZM85.8578 36.8C86.5511 36.8 87.2045 36.68 87.8178 36.44C88.4578 36.1733 89.0178 35.8 89.4978 35.32C89.9778 34.84 90.3645 34.2533 90.6578 33.56C90.9511 32.8667 91.0978 32.08 91.0978 31.2C91.0978 30.32 90.9511 29.5333 90.6578 28.84C90.3645 28.1467 89.9778 27.56 89.4978 27.08C89.0178 26.6 88.4578 26.24 87.8178 26C87.2045 25.7333 86.5511 25.6 85.8578 25.6C85.1645 25.6 84.4978 25.7333 83.8578 26C83.2445 26.2667 82.6978 26.64 82.2178 27.12C81.7378 27.6 81.3511 28.1867 81.0578 28.88C80.7645 29.5733 80.6178 30.3467 80.6178 31.2C80.6178 32.0533 80.7645 32.8267 81.0578 33.52C81.3511 34.2133 81.7378 34.8 82.2178 35.28C82.6978 35.76 83.2445 36.1333 83.8578 36.4C84.4978 36.6667 85.1645 36.8 85.8578 36.8ZM100.482 41V12.36H105.722V41H100.482ZM128.573 36.28C127.667 37.88 126.44 39.1733 124.893 40.16C123.373 41.1467 121.507 41.64 119.293 41.64C117.8 41.64 116.413 41.3867 115.133 40.88C113.88 40.3467 112.787 39.6133 111.853 38.68C110.92 37.7467 110.187 36.6533 109.653 35.4C109.147 34.12 108.893 32.72 108.893 31.2C108.893 29.7867 109.147 28.4533 109.653 27.2C110.16 25.92 110.867 24.8133 111.773 23.88C112.68 22.92 113.747 22.16 114.973 21.6C116.227 21.04 117.6 20.76 119.093 20.76C120.667 20.76 122.067 21.0267 123.293 21.56C124.52 22.0667 125.547 22.7867 126.373 23.72C127.2 24.6267 127.827 25.7067 128.253 26.96C128.68 28.2133 128.893 29.5733 128.893 31.04C128.893 31.2267 128.893 31.3867 128.893 31.52C128.867 31.68 128.853 31.8267 128.853 31.96C128.827 32.0933 128.813 32.24 128.813 32.4H114.053C114.16 33.2 114.373 33.8933 114.693 34.48C115.04 35.04 115.453 35.52 115.933 35.92C116.44 36.2933 116.987 36.5733 117.573 36.76C118.16 36.92 118.76 37 119.373 37C120.573 37 121.56 36.7333 122.333 36.2C123.133 35.64 123.76 34.9467 124.213 34.12L128.573 36.28ZM123.813 28.68C123.787 28.3333 123.667 27.9467 123.453 27.52C123.267 27.0933 122.973 26.6933 122.573 26.32C122.2 25.9467 121.72 25.64 121.133 25.4C120.573 25.16 119.893 25.04 119.093 25.04C117.973 25.04 116.987 25.36 116.133 26C115.28 26.64 114.68 27.5333 114.333 28.68H123.813ZM145.949 23.96H146.269C146.882 22.9733 147.709 22.2 148.749 21.64C149.789 21.0533 150.976 20.76 152.309 20.76C153.536 20.76 154.616 20.96 155.549 21.36C156.482 21.76 157.242 22.3333 157.829 23.08C158.442 23.8 158.896 24.68 159.189 25.72C159.509 26.7333 159.669 27.8667 159.669 29.12V41H154.429V29.76C154.429 28.3467 154.109 27.3067 153.469 26.64C152.856 25.9467 151.949 25.6 150.749 25.6C150.029 25.6 149.389 25.76 148.829 26.08C148.296 26.3733 147.829 26.7867 147.429 27.32C147.056 27.8267 146.762 28.44 146.549 29.16C146.362 29.8533 146.269 30.6 146.269 31.4V41H141.029V21.4H145.949V23.96ZM168.278 23.32C167.558 23.32 166.878 23.1867 166.238 22.92C165.598 22.6533 165.038 22.2933 164.558 21.84C164.104 21.36 163.731 20.8133 163.438 20.2C163.171 19.56 163.038 18.88 163.038 18.16C163.038 17.44 163.171 16.7733 163.438 16.16C163.731 15.52 164.104 14.9733 164.558 14.52C165.038 14.04 165.598 13.6667 166.238 13.4C166.878 13.1333 167.558 13 168.278 13C168.998 13 169.664 13.1333 170.278 13.4C170.918 13.6667 171.464 14.04 171.918 14.52C172.398 14.9733 172.771 15.52 173.038 16.16C173.331 16.7733 173.478 17.44 173.478 18.16C173.478 18.88 173.331 19.56 173.038 20.2C172.771 20.8133 172.398 21.36 171.918 21.84C171.464 22.2933 170.918 22.6533 170.278 22.92C169.664 23.1867 168.998 23.32 168.278 23.32ZM168.278 20.24C168.864 20.24 169.344 20.04 169.718 19.64C170.091 19.2133 170.278 18.72 170.278 18.16C170.278 17.5733 170.091 17.08 169.718 16.68C169.344 16.28 168.864 16.08 168.278 16.08C167.664 16.08 167.171 16.28 166.798 16.68C166.424 17.08 166.238 17.5733 166.238 18.16C166.238 18.72 166.424 19.2133 166.798 19.64C167.171 20.04 167.664 20.24 168.278 20.24ZM176.606 41V36.24C178.179 34.6933 179.632 33.2533 180.966 31.92C181.526 31.36 182.099 30.7867 182.686 30.2C183.272 29.6133 183.819 29.0667 184.326 28.56C184.832 28.0533 185.286 27.6 185.686 27.2C186.086 26.7733 186.392 26.44 186.606 26.2C187.032 25.6933 187.406 25.24 187.726 24.84C188.072 24.44 188.339 24.0533 188.526 23.68C188.739 23.28 188.899 22.8933 189.006 22.52C189.112 22.12 189.166 21.6933 189.166 21.24C189.166 20.36 188.819 19.6 188.126 18.96C187.432 18.2933 186.486 17.96 185.286 17.96C184.086 17.96 183.152 18.3067 182.486 19C181.819 19.6667 181.366 20.4267 181.126 21.28L176.366 19.32C176.579 18.6 176.926 17.8667 177.406 17.12C177.886 16.3467 178.499 15.6667 179.246 15.08C179.992 14.4667 180.872 13.9733 181.886 13.6C182.926 13.2 184.086 13 185.366 13C186.752 13 188.006 13.2133 189.126 13.64C190.246 14.04 191.192 14.6 191.966 15.32C192.739 16.04 193.339 16.8933 193.766 17.88C194.192 18.84 194.406 19.88 194.406 21C194.406 22.7067 193.979 24.28 193.126 25.72C192.299 27.1333 191.286 28.4533 190.086 29.68L186.646 33.12C185.739 34.0267 184.712 35.04 183.566 36.16L183.726 36.4H194.806V41H176.606ZM210.752 41.24C209.792 41.24 208.965 40.9067 208.272 40.24C207.605 39.5467 207.272 38.72 207.272 37.76C207.272 36.8 207.605 35.9867 208.272 35.32C208.965 34.6533 209.792 34.32 210.752 34.32C211.712 34.32 212.525 34.6533 213.192 35.32C213.858 35.9867 214.192 36.8 214.192 37.76C214.192 38.72 213.858 39.5467 213.192 40.24C212.525 40.9067 211.712 41.24 210.752 41.24ZM210.752 27.84C209.792 27.84 208.965 27.5067 208.272 26.84C207.605 26.1467 207.272 25.32 207.272 24.36C207.272 23.4 207.605 22.5867 208.272 21.92C208.965 21.2267 209.792 20.88 210.752 20.88C211.712 20.88 212.525 21.2267 213.192 21.92C213.858 22.5867 214.192 23.4 214.192 24.36C214.192 25.32 213.858 26.1467 213.192 26.84C212.525 27.5067 211.712 27.84 210.752 27.84Z" fill="black"/>
<rect y="49" width="3" height="50" transform="rotate(-90 0 49)" fill="#4285F4"/>
<rect x="50" y="49" width="3" height="71" transform="rotate(-90 50 49)" fill="#EA4335"/>
<rect x="121" y="49" width="3" height="54" transform="rotate(-90 121 49)" fill="#FBBC05"/>
<rect x="175" y="49" width="3" height="50" transform="rotate(-90 175 49)" fill="#34A853"/>
</svg>
